<?xml version="1.0" standalone="yes"?>

<svg version="1.1" viewBox="0.0 0.0 960.0 720.0" fill="none" stroke="none" stroke-linecap="square" stroke-miterlimit="10" xmlns="http://www.w3.org/2000/svg" xmlns:xlink="http://www.w3.org/1999/xlink"><clipPath id="p.0"><path d="m0 0l960.0 0l0 720.0l-960.0 0l0 -720.0z" clip-rule="nonzero"></path></clipPath><g clip-path="url(#p.0)"><path fill="#000000" fill-opacity="0.0" d="m0 0l960.0 0l0 720.0l-960.0 0z" fill-rule="nonzero"></path><path fill="#cfe2f3" d="m351.03937 91.87473l0 0c0 -19.813065 16.061676 -35.874733 35.874725 -35.874733l186.17178 0c9.514587 0 18.639465 3.7796478 25.36731 10.507469c6.727783 6.7278137 10.507446 15.852692 10.507446 25.367264l0 143.49463c0 19.81308 -16.061646 35.874725 -35.874756 35.874725l-186.17178 0l0 0c-19.81305 0 -35.874725 -16.061646 -35.874725 -35.874725z" fill-rule="nonzero"></path><path stroke="#000000" stroke-width="2.0" stroke-linejoin="round" stroke-linecap="butt" d="m351.03937 91.87473l0 0c0 -19.813065 16.061676 -35.874733 35.874725 -35.874733l186.17178 0c9.514587 0 18.639465 3.7796478 25.36731 10.507469c6.727783 6.7278137 10.507446 15.852692 10.507446 25.367264l0 143.49463c0 19.81308 -16.061646 35.874725 -35.874756 35.874725l-186.17178 0l0 0c-19.81305 0 -35.874725 -16.061646 -35.874725 -35.874725z" fill-rule="nonzero"></path><path fill="#000000" d="m445.66992 98.83454q0 -2.125 -1.15625 -3.25q-1.140625 -1.140625 -4.15625 -2.21875q-3.0 -1.078125 -4.59375 -2.25q-1.59375 -1.1875 -2.390625 -2.703125q-0.78125 -1.515625 -0.78125 -3.46875q0 -3.375 2.25 -5.5625q2.265625 -2.1875 5.90625 -2.1875q2.5 0 4.453125 1.125q1.953125 1.125 3.0 3.125q1.0625 1.984375 1.0625 4.359375l-3.59375 0q0 -2.640625 -1.265625 -4.078125q-1.265625 -1.453125 -3.65625 -1.453125q-2.15625 0 -3.359375 1.21875q-1.1875 1.203125 -1.1875 3.390625q0 1.796875 1.28125 3.015625q1.296875 1.203125 4.0 2.171875q4.1875 1.375 6.0 3.40625q1.8125 2.03125 1.8125 5.3125q0 3.46875 -2.25 5.546875q-2.25 2.078125 -6.109375 2.078125q-2.484375 0 -4.59375 -1.078125q-2.09375 -1.09375 -3.296875 -3.046875q-1.203125 -1.96875 -1.203125 -4.515625l3.59375 0q0 2.640625 1.46875 4.109375q1.484375 1.46875 4.03125 1.46875q2.359375 0 3.546875 -1.203125q1.1875 -1.21875 1.1875 -3.3125zm15.378906 7.578125q-3.953125 0 -6.0625 -2.34375q-2.109375 -2.359375 -2.140625 -6.921875l0 -2.546875q0 -4.734375 2.0625 -7.421875q2.0625 -2.6875 5.75 -2.6875q3.703125 0 5.53125 2.375q1.84375 2.359375 1.890625 7.359375l0 2.265625l-11.796875 0l0 0.484375q0 3.40625 1.28125 4.953125q1.28125 1.53125 3.671875 1.53125q1.53125 0 2.6875 -0.578125q1.171875 -0.578125 2.1875 -1.828125l1.796875 2.1875q-2.25 3.171875 -6.859375 3.171875zm-0.390625 -18.953125q-2.15625 0 -3.1875 1.484375q-1.03125 1.46875 -1.171875 4.578125l8.328125 0l0 -0.46875q-0.140625 -3.015625 -1.09375 -4.296875q-0.9375 -1.296875 -2.875 -1.296875zm20.292969 0.671875q-0.71875 -0.140625 -1.5625 -0.140625q-2.65625 0 -3.71875 2.90625l0 15.125l-3.453125 0l0 -21.140625l3.359375 0l0.0625 2.15625q1.390625 -2.546875 3.921875 -2.546875q0.828125 0 1.375 0.28125l0.015625 3.359375zm9.433594 12.640625l4.0 -15.890625l3.515625 0l-6.265625 21.140625l-2.578125 0l-6.34375 -21.140625l3.515625 0l4.15625 15.890625zm18.671875 5.640625q-3.953125 0 -6.0625 -2.34375q-2.109375 -2.359375 -2.140625 -6.921875l0 -2.546875q0 -4.734375 2.0625 -7.421875q2.0625 -2.6875 5.75 -2.6875q3.703125 0 5.53125 2.375q1.84375 2.359375 1.890625 7.359375l0 2.265625l-11.796875 0l0 0.484375q0 3.40625 1.28125 4.953125q1.28125 1.53125 3.671875 1.53125q1.53125 0 2.6875 -0.578125q1.171875 -0.578125 2.1875 -1.828125l1.796875 2.1875q-2.25 3.171875 -6.859375 3.171875zm-0.390625 -18.953125q-2.15625 0 -3.1875 1.484375q-1.03125 1.46875 -1.171875 4.578125l8.328125 0l0 -0.46875q-0.140625 -3.015625 -1.09375 -4.296875q-0.9375 -1.296875 -2.875 -1.296875zm20.292969 0.671875q-0.71875 -0.140625 -1.5625 -0.140625q-2.65625 0 -3.71875 2.90625l0 15.125l-3.453125 0l0 -21.140625l3.359375 0l0.0625 2.15625q1.390625 -2.546875 3.921875 -2.546875q0.828125 0 1.375 0.28125l0.015625 3.359375z" fill-rule="nonzero"></path><path fill="#cfe2f3" d="m404.83466 157.79134l0 0c0 6.486084 33.65268 11.744095 75.165344 11.744095c41.512695 0 75.165344 -5.258011 75.165344 -11.744095l0 70.46457c0 6.486084 -33.65265 11.744095 -75.165344 11.744095c-41.512665 0 -75.165344 -5.258011 -75.165344 -11.744095z" fill-rule="nonzero"></path><path fill="#e2edf7" d="m404.83466 157.79134l0 0c0 -6.486084 33.65268 -11.744095 75.165344 -11.744095c41.512695 0 75.165344 5.258011 75.165344 11.744095l0 0c0 6.486084 -33.65265 11.744095 -75.165344 11.744095c-41.512665 0 -75.165344 -5.258011 -75.165344 -11.744095z" fill-rule="nonzero"></path><path fill="#000000" fill-opacity="0.0" d="m555.16534 157.79134l0 0c0 6.486084 -33.65265 11.744095 -75.165344 11.744095c-41.512665 0 -75.165344 -5.258011 -75.165344 -11.744095l0 0c0 -6.486084 33.65268 -11.744095 75.165344 -11.744095c41.512695 0 75.165344 5.258011 75.165344 11.744095l0 70.46457c0 6.486084 -33.65265 11.744095 -75.165344 11.744095c-41.512665 0 -75.165344 -5.258011 -75.165344 -11.744095l0 -70.46457" fill-rule="nonzero"></path><path stroke="#000000" stroke-width="2.0" stroke-linejoin="round" stroke-linecap="butt" d="m555.16534 157.79134l0 0c0 6.486084 -33.65265 11.744095 -75.165344 11.744095c-41.512665 0 -75.165344 -5.258011 -75.165344 -11.744095l0 0c0 -6.486084 33.65268 -11.744095 75.165344 -11.744095c41.512695 0 75.165344 5.258011 75.165344 11.744095l0 70.46457c0 6.486084 -33.65265 11.744095 -75.165344 11.744095c-41.512665 0 -75.165344 -5.258011 -75.165344 -11.744095l0 -70.46457" fill-rule="nonzero"></path><path fill="#000000" d="m451.77344 201.79567l-5.0 0l0 11.5l-3.59375 0l0 -28.4375l7.96875 0q4.1875 0 6.328125 2.1875q2.15625 2.171875 2.15625 6.359375q0 2.640625 -1.171875 4.609375q-1.15625 1.953125 -3.28125 2.953125l5.5 12.09375l0 0.234375l-3.84375 0l-5.0625 -11.5zm-5.0 -3.078125l4.34375 0q2.25 0 3.578125 -1.4375q1.34375 -1.453125 1.34375 -3.875q0 -5.46875 -4.96875 -5.46875l-4.296875 0l0 10.78125zm24.714844 14.96875q-3.953125 0 -6.0625 -2.34375q-2.109375 -2.359375 -2.140625 -6.921875l0 -2.546875q0 -4.734375 2.0625 -7.421875q2.0625 -2.6875 5.75 -2.6875q3.703125 0 5.53125 2.375q1.84375 2.359375 1.890625 7.359375l0 2.265625l-11.796875 0l0 0.484375q0 3.40625 1.28125 4.953125q1.28125 1.53125 3.671875 1.53125q1.53125 0 2.6875 -0.578125q1.171875 -0.578125 2.1875 -1.828125l1.796875 2.1875q-2.25 3.171875 -6.859375 3.171875zm-0.390625 -18.953125q-2.15625 0 -3.1875 1.484375q-1.03125 1.46875 -1.171875 4.578125l8.328125 0l0 -0.46875q-0.140625 -3.015625 -1.09375 -4.296875q-0.9375 -1.296875 -2.875 -1.296875zm26.839844 9.015625q0 5.015625 -1.8125 7.484375q-1.8125 2.453125 -5.109375 2.453125q-3.1875 0 -4.90625 -2.40625l0 10.140625l-3.4375 0l0 -29.265625l3.125 0l0.1875 2.34375q1.734375 -2.734375 4.96875 -2.734375q3.484375 0 5.203125 2.421875q1.71875 2.421875 1.78125 7.25l0 2.3125zm-3.4375 -1.984375q0 -3.546875 -1.09375 -5.234375q-1.09375 -1.6875 -3.515625 -1.6875q-2.484375 0 -3.78125 2.46875l0 11.0q1.28125 2.421875 3.8125 2.421875q2.34375 0 3.4375 -1.6875q1.109375 -1.6875 1.140625 -5.171875l0 -2.109375zm7.1640625 -0.015625q0 -4.609375 2.234375 -7.296875q2.234375 -2.6875 5.90625 -2.6875q3.671875 0 5.90625 2.625q2.234375 2.609375 2.296875 7.125l0 2.234375q0 4.578125 -2.234375 7.265625q-2.21875 2.671875 -5.921875 2.671875q-3.671875 0 -5.890625 -2.59375q-2.21875 -2.609375 -2.296875 -7.03125l0 -2.3125zm3.453125 2.0q0 3.25 1.28125 5.125q1.28125 1.859375 3.453125 1.859375q4.5625 0 4.703125 -6.59375l0 -2.390625q0 -3.234375 -1.296875 -5.125q-1.28125 -1.890625 -3.453125 -1.890625q-2.125 0 -3.40625 1.890625q-1.28125 1.890625 -1.28125 5.109375l0 2.015625z" fill-rule="nonzero"></path><path fill="#cfe2f3" d="m62.07874 435.87473l0 0c0 -19.81305 16.061665 -35.874725 35.874737 -35.874725l186.1718 0c9.514557 0 18.639435 3.779663 25.367249 10.507477c6.7278137 6.7278137 10.507477 15.852692 10.507477 25.367249l0 143.49466c0 19.81305 -16.061676 35.874695 -35.874725 35.874695l-186.1718 0l0 0c-19.813072 0 -35.874737 -16.061646 -35.874737 -35.874695z" fill-rule="nonzero"></path><path stroke="#000000" stroke-width="2.0" stroke-linejoin="round" stroke-linecap="butt" d="m62.07874 435.87473l0 0c0 -19.81305 16.061665 -35.874725 35.874737 -35.874725l186.1718 0c9.514557 0 18.639435 3.779663 25.367249 10.507477c6.7278137 6.7278137 10.507477 15.852692 10.507477 25.367249l0 143.49466c0 19.81305 -16.061676 35.874695 -35.874725 35.874695l-186.1718 0l0 0c-19.813072 0 -35.874737 -16.061646 -35.874737 -35.874695z" fill-rule="nonzero"></path><path fill="#000000" d="m164.76593 594.02203l0 -28.4375l6.78125 0q4.984375 0 7.734375 3.125q2.75 3.109375 2.75 8.75l0 4.765625q0 5.640625 -2.796875 8.71875q-2.78125 3.078125 -8.09375 3.078125l-6.375 0zm3.578125 -25.359375l0 22.296875l2.875 0q3.765625 0 5.5 -2.15625q1.75 -2.171875 1.78125 -6.40625l0 -5.03125q0 -4.5 -1.734375 -6.59375q-1.71875 -2.109375 -5.21875 -2.109375l-3.203125 0zm26.332031 25.75q-3.953125 0 -6.0625 -2.34375q-2.109375 -2.359375 -2.140625 -6.921875l0 -2.546875q0 -4.734375 2.0625 -7.421875q2.0625 -2.6875 5.75 -2.6875q3.703125 0 5.53125 2.375q1.84375 2.359375 1.890625 7.359375l0 2.265625l-11.796875 0l0 0.484375q0 3.40625 1.28125 4.953125q1.28125 1.53125 3.671875 1.53125q1.53125 0 2.6875 -0.578125q1.171875 -0.578125 2.1875 -1.828125l1.796875 2.1875q-2.25 3.171875 -6.859375 3.171875zm-0.390625 -18.953125q-2.15625 0 -3.1875 1.484375q-1.03125 1.46875 -1.171875 4.578125l8.328125 0l0 -0.46875q-0.140625 -3.015625 -1.09375 -4.296875q-0.9375 -1.296875 -2.875 -1.296875zm17.558594 13.3125l4.0 -15.890625l3.515625 0l-6.265625 21.140625l-2.578125 0l-6.34375 -21.140625l3.515625 0l4.15625 15.890625z" fill-rule="nonzero"></path><path fill="#cfe2f3" d="m103.826775 436.17978l0 0c0 6.486084 39.04641 11.74411 87.21259 11.74411c48.166183 0 87.212616 -5.258026 87.212616 -11.74411l0 70.46457c0 6.486084 -39.046432 11.74408 -87.212616 11.74408c-48.166183 0 -87.21259 -5.2579956 -87.21259 -11.74408z" fill-rule="nonzero"></path><path fill="#e2edf7" d="m103.826775 436.17978l0 0c0 -6.486084 39.04641 -11.74408 87.21259 -11.74408c48.166183 0 87.212616 5.2579956 87.212616 11.74408l0 0c0 6.486084 -39.046432 11.74411 -87.212616 11.74411c-48.166183 0 -87.21259 -5.258026 -87.21259 -11.74411z" fill-rule="nonzero"></path><path fill="#000000" fill-opacity="0.0" d="m278.25198 436.17978l0 0c0 6.486084 -39.046432 11.74411 -87.212616 11.74411c-48.166183 0 -87.21259 -5.258026 -87.21259 -11.74411l0 0c0 -6.486084 39.04641 -11.74408 87.21259 -11.74408c48.166183 0 87.212616 5.2579956 87.212616 11.74408l0 70.46457c0 6.486084 -39.046432 11.74408 -87.212616 11.74408c-48.166183 0 -87.21259 -5.2579956 -87.21259 -11.74408l0 -70.46457" fill-rule="nonzero"></path><path stroke="#000000" stroke-width="2.0" stroke-linejoin="round" stroke-linecap="butt" d="m278.25198 436.17978l0 0c0 6.486084 -39.046432 11.74411 -87.212616 11.74411c-48.166183 0 -87.21259 -5.258026 -87.21259 -11.74411l0 0c0 -6.486084 39.04641 -11.74408 87.21259 -11.74408c48.166183 0 87.212616 5.2579956 87.212616 11.74408l0 70.46457c0 6.486084 -39.046432 11.74408 -87.212616 11.74408c-48.166183 0 -87.21259 -5.2579956 -87.21259 -11.74408l0 -70.46457" fill-rule="nonzero"></path><path fill="#000000" d="m137.7171 482.65286q-0.234375 4.578125 -2.578125 7.0q-2.328125 2.421875 -6.59375 2.421875q-4.2656174 0 -6.7968674 -3.25q-2.515625 -3.25 -2.515625 -8.828125l0 -5.15625q0 -5.546875 2.578125 -8.765625q2.59375 -3.21875 7.0781174 -3.21875q4.109375 0 6.359375 2.46875q2.265625 2.46875 2.46875 7.0625l-3.625 0q-0.234375 -3.484375 -1.46875 -4.96875q-1.21875 -1.484375 -3.734375 -1.484375q-2.9218674 0 -4.4843674 2.28125q-1.5625 2.28125 -1.5625 6.671875l0 5.21875q0 4.3125 1.453125 6.625q1.46875 2.296875 4.2499924 2.296875q2.796875 0 4.03125 -1.390625q1.234375 -1.390625 1.515625 -4.984375l3.625 0zm7.8007812 -9.9375q1.984375 -2.5625 5.046875 -2.5625q5.609375 0 5.6875 7.484375l0 14.046875l-3.4375 0l0 -13.890625q0 -2.484375 -0.84375 -3.515625q-0.828125 -1.046875 -2.484375 -1.046875q-1.28125 0 -2.3125 0.859375q-1.03125 0.859375 -1.65625 2.234375l0 15.359375l-3.453125 0l0 -30.0l3.453125 0l0 11.03125zm23.425781 19.359375q-3.953125 0 -6.0625 -2.34375q-2.109375 -2.359375 -2.140625 -6.921875l0 -2.546875q0 -4.734375 2.0625 -7.421875q2.0625 -2.6875 5.75 -2.6875q3.703125 0 5.53125 2.375q1.84375 2.359375 1.890625 7.359375l0 2.265625l-11.796875 0l0 0.484375q0 3.40625 1.28125 4.953125q1.28125 1.53125 3.671875 1.53125q1.53125 0 2.6875 -0.578125q1.171875 -0.578125 2.1875 -1.828125l1.796875 2.1875q-2.25 3.171875 -6.859375 3.171875zm-0.390625 -18.953125q-2.15625 0 -3.1875 1.484375q-1.03125 1.46875 -1.171875 4.578125l8.328125 0l0 -0.46875q-0.140625 -3.015625 -1.09375 -4.296875q-0.9375 -1.296875 -2.875 -1.296875zm18.902344 16.0q1.71875 0 2.75 -1.0625q1.046875 -1.0625 1.140625 -3.03125l3.265625 0q-0.125 3.046875 -2.171875 5.046875q-2.03125 2.0 -4.984375 2.0q-3.921875 0 -5.984375 -2.46875q-2.0625 -2.46875 -2.0625 -7.359375l0 -2.328125q0 -4.78125 2.046875 -7.265625q2.0625 -2.5 5.984375 -2.5q3.234375 0 5.140625 2.0625q1.90625 2.046875 2.03125 5.59375l-3.265625 0q-0.125 -2.34375 -1.125 -3.515625q-1.0 -1.171875 -2.78125 -1.171875q-2.3125 0 -3.421875 1.515625q-1.109375 1.515625 -1.15625 4.96875l0 2.703125q0 3.734375 1.109375 5.28125q1.109375 1.53125 3.484375 1.53125zm16.445312 -7.109375l-1.828125 2.109375l0 7.5625l-3.46875 0l0 -30.0l3.46875 0l0 17.953125l6.578125 -9.09375l4.140625 0l-6.71875 8.828125l7.59375 12.3125l-4.015625 0l-5.75 -9.671875zm11.996094 -1.875q0 -4.609375 2.234375 -7.296875q2.234375 -2.6875 5.90625 -2.6875q3.671875 0 5.90625 2.625q2.234375 2.609375 2.296875 7.125l0 2.234375q0 4.578125 -2.234375 7.265625q-2.21875 2.671875 -5.921875 2.671875q-3.671875 0 -5.890625 -2.59375q-2.21875 -2.609375 -2.296875 -7.03125l0 -2.3125zm3.453125 2.0q0 3.25 1.28125 5.125q1.28125 1.859375 3.453125 1.859375q4.5625 0 4.703125 -6.59375l0 -2.390625q0 -3.234375 -1.296875 -5.125q-1.28125 -1.890625 -3.453125 -1.890625q-2.125 0 -3.40625 1.890625q-1.28125 1.890625 -1.28125 5.109375l0 2.015625zm28.125 7.6875q-1.71875 2.25 -5.015625 2.25q-2.875 0 -4.34375 -1.984375q-1.453125 -1.984375 -1.484375 -5.765625l0 -13.78125l3.4375 0l0 13.515625q0 4.953125 2.96875 4.953125q3.15625 0 4.34375 -2.8125l0 -15.65625l3.453125 0l0 21.140625l-3.28125 0l-0.078125 -1.859375zm13.0859375 -24.390625l0 5.109375l3.1875 0l0 2.796875l-3.1875 0l0 13.109375q0 1.25 0.40625 1.890625q0.421875 0.640625 1.40625 0.640625q0.6875 0 1.390625 -0.234375l-0.03125 2.9375q-1.171875 0.390625 -2.40625 0.390625q-2.046875 0 -3.125 -1.46875q-1.078125 -1.46875 -1.078125 -4.140625l0 -13.125l-3.21875 0l0 -2.796875l3.21875 0l0 -5.109375l3.4375 0z" fill-rule="nonzero"></path><path fill="#cfe2f3" d="m351.03937 435.87473l0 0c0 -19.81305 16.061676 -35.874725 35.874725 -35.874725l186.17178 0c9.514587 0 18.639465 3.779663 25.36731 10.507477c6.727783 6.7278137 10.507446 15.852692 10.507446 25.367249l0 143.49466c0 19.81305 -16.061646 35.874695 -35.874756 35.874695l-186.17178 0l0 0c-19.81305 0 -35.874725 -16.061646 -35.874725 -35.874695z" fill-rule="nonzero"></path><path stroke="#000000" stroke-width="2.0" stroke-linejoin="round" stroke-linecap="butt" d="m351.03937 435.87473l0 0c0 -19.81305 16.061676 -35.874725 35.874725 -35.874725l186.17178 0c9.514587 0 18.639465 3.779663 25.36731 10.507477c6.727783 6.7278137 10.507446 15.852692 10.507446 25.367249l0 143.49466c0 19.81305 -16.061646 35.874695 -35.874756 35.874695l-186.17178 0l0 0c-19.81305 0 -35.874725 -16.061646 -35.874725 -35.874695z" fill-rule="nonzero"></path><path fill="#000000" d="m453.72656 594.02203l0 -28.4375l6.78125 0q4.984375 0 7.734375 3.125q2.75 3.109375 2.75 8.75l0 4.765625q0 5.640625 -2.796875 8.71875q-2.78125 3.078125 -8.09375 3.078125l-6.375 0zm3.578125 -25.359375l0 22.296875l2.875 0q3.765625 0 5.5 -2.15625q1.75 -2.171875 1.78125 -6.40625l0 -5.03125q0 -4.5 -1.734375 -6.59375q-1.71875 -2.109375 -5.21875 -2.109375l-3.203125 0zm26.332031 25.75q-3.953125 0 -6.0625 -2.34375q-2.109375 -2.359375 -2.140625 -6.921875l0 -2.546875q0 -4.734375 2.0625 -7.421875q2.0625 -2.6875 5.75 -2.6875q3.703125 0 5.53125 2.375q1.84375 2.359375 1.890625 7.359375l0 2.265625l-11.796875 0l0 0.484375q0 3.40625 1.28125 4.953125q1.28125 1.53125 3.671875 1.53125q1.53125 0 2.6875 -0.578125q1.171875 -0.578125 2.1875 -1.828125l1.796875 2.1875q-2.25 3.171875 -6.859375 3.171875zm-0.390625 -18.953125q-2.15625 0 -3.1875 1.484375q-1.03125 1.46875 -1.171875 4.578125l8.328125 0l0 -0.46875q-0.140625 -3.015625 -1.09375 -4.296875q-0.9375 -1.296875 -2.875 -1.296875zm17.558594 13.3125l4.0 -15.890625l3.515625 0l-6.265625 21.140625l-2.578125 0l-6.34375 -21.140625l3.515625 0l4.15625 15.890625z" fill-rule="nonzero"></path><path fill="#cfe2f3" d="m640.0 435.87473l0 0c0 -19.81305 16.061646 -35.874725 35.874756 -35.874725l186.17175 0c9.514587 0 18.639465 3.779663 25.36731 10.507477c6.727783 6.7278137 10.507446 15.852692 10.507446 25.367249l0 143.49466c0 19.81305 -16.061646 35.874695 -35.874756 35.874695l-186.17175 0l0 0c-19.81311 0 -35.874756 -16.061646 -35.874756 -35.874695z" fill-rule="nonzero"></path><path stroke="#000000" stroke-width="2.0" stroke-linejoin="round" stroke-linecap="butt" d="m640.0 435.87473l0 0c0 -19.81305 16.061646 -35.874725 35.874756 -35.874725l186.17175 0c9.514587 0 18.639465 3.779663 25.36731 10.507477c6.727783 6.7278137 10.507446 15.852692 10.507446 25.367249l0 143.49466c0 19.81305 -16.061646 35.874695 -35.874756 35.874695l-186.17175 0l0 0c-19.81311 0 -35.874756 -16.061646 -35.874756 -35.874695z" fill-rule="nonzero"></path><path fill="#000000" d="m742.6872 594.02203l0 -28.4375l6.78125 0q4.984375 0 7.734375 3.125q2.75 3.109375 2.75 8.75l0 4.765625q0 5.640625 -2.796875 8.71875q-2.78125 3.078125 -8.09375 3.078125l-6.375 0zm3.578125 -25.359375l0 22.296875l2.875 0q3.765625 0 5.5 -2.15625q1.75 -2.171875 1.78125 -6.40625l0 -5.03125q0 -4.5 -1.734375 -6.59375q-1.71875 -2.109375 -5.21875 -2.109375l-3.203125 0zm26.332031 25.75q-3.953125 0 -6.0625 -2.34375q-2.109375 -2.359375 -2.140625 -6.921875l0 -2.546875q0 -4.734375 2.0625 -7.421875q2.0625 -2.6875 5.75 -2.6875q3.703125 0 5.53125 2.375q1.84375 2.359375 1.890625 7.359375l0 2.265625l-11.796875 0l0 0.484375q0 3.40625 1.28125 4.953125q1.28125 1.53125 3.671875 1.53125q1.53125 0 2.6875 -0.578125q1.171875 -0.578125 2.1875 -1.828125l1.796875 2.1875q-2.25 3.171875 -6.859375 3.171875zm-0.390625 -18.953125q-2.15625 0 -3.1875 1.484375q-1.03125 1.46875 -1.171875 4.578125l8.328125 0l0 -0.46875q-0.140625 -3.015625 -1.09375 -4.296875q-0.9375 -1.296875 -2.875 -1.296875zm17.558594 13.3125l4.0 -15.890625l3.515625 0l-6.265625 21.140625l-2.578125 0l-6.34375 -21.140625l3.515625 0l4.15625 15.890625z" fill-rule="nonzero"></path><path fill="#cfe2f3" d="m392.7874 436.17978l0 0c0 6.486084 39.046387 11.74411 87.212585 11.74411c48.1662 0 87.212585 -5.258026 87.212585 -11.74411l0 70.46457c0 6.486084 -39.046387 11.74408 -87.212585 11.74408c-48.1662 0 -87.212585 -5.2579956 -87.212585 -11.74408z" fill-rule="nonzero"></path><path fill="#e2edf7" d="m392.7874 436.17978l0 0c0 -6.486084 39.046387 -11.74408 87.212585 -11.74408c48.1662 0 87.212585 5.2579956 87.212585 11.74408l0 0c0 6.486084 -39.046387 11.74411 -87.212585 11.74411c-48.1662 0 -87.212585 -5.258026 -87.212585 -11.74411z" fill-rule="nonzero"></path><path fill="#000000" fill-opacity="0.0" d="m567.2126 436.17978l0 0c0 6.486084 -39.046387 11.74411 -87.212585 11.74411c-48.1662 0 -87.212585 -5.258026 -87.212585 -11.74411l0 0c0 -6.486084 39.046387 -11.74408 87.212585 -11.74408c48.1662 0 87.212585 5.2579956 87.212585 11.74408l0 70.46457c0 6.486084 -39.046387 11.74408 -87.212585 11.74408c-48.1662 0 -87.212585 -5.2579956 -87.212585 -11.74408l0 -70.46457" fill-rule="nonzero"></path><path stroke="#000000" stroke-width="2.0" stroke-linejoin="round" stroke-linecap="butt" d="m567.2126 436.17978l0 0c0 6.486084 -39.046387 11.74411 -87.212585 11.74411c-48.1662 0 -87.212585 -5.258026 -87.212585 -11.74411l0 0c0 -6.486084 39.046387 -11.74408 87.212585 -11.74408c48.1662 0 87.212585 5.2579956 87.212585 11.74408l0 70.46457c0 6.486084 -39.046387 11.74408 -87.212585 11.74408c-48.1662 0 -87.212585 -5.2579956 -87.212585 -11.74408l0 -70.46457" fill-rule="nonzero"></path><path fill="#000000" d="m426.67773 482.65286q-0.234375 4.578125 -2.578125 7.0q-2.328125 2.421875 -6.59375 2.421875q-4.265625 0 -6.796875 -3.25q-2.515625 -3.25 -2.515625 -8.828125l0 -5.15625q0 -5.546875 2.578125 -8.765625q2.59375 -3.21875 7.078125 -3.21875q4.109375 0 6.359375 2.46875q2.265625 2.46875 2.46875 7.0625l-3.625 0q-0.234375 -3.484375 -1.46875 -4.96875q-1.21875 -1.484375 -3.734375 -1.484375q-2.921875 0 -4.484375 2.28125q-1.5625 2.28125 -1.5625 6.671875l0 5.21875q0 4.3125 1.453125 6.625q1.46875 2.296875 4.25 2.296875q2.796875 0 4.03125 -1.390625q1.234375 -1.390625 1.515625 -4.984375l3.625 0zm7.8007812 -9.9375q1.984375 -2.5625 5.046875 -2.5625q5.609375 0 5.6875 7.484375l0 14.046875l-3.4375 0l0 -13.890625q0 -2.484375 -0.84375 -3.515625q-0.828125 -1.046875 -2.484375 -1.046875q-1.28125 0 -2.3125 0.859375q-1.03125 0.859375 -1.65625 2.234375l0 15.359375l-3.453125 0l0 -30.0l3.453125 0l0 11.03125zm23.425781 19.359375q-3.953125 0 -6.0625 -2.34375q-2.109375 -2.359375 -2.140625 -6.921875l0 -2.546875q0 -4.734375 2.0625 -7.421875q2.0625 -2.6875 5.75 -2.6875q3.703125 0 5.53125 2.375q1.84375 2.359375 1.890625 7.359375l0 2.265625l-11.796875 0l0 0.484375q0 3.40625 1.28125 4.953125q1.28125 1.53125 3.671875 1.53125q1.53125 0 2.6875 -0.578125q1.171875 -0.578125 2.1875 -1.828125l1.796875 2.1875q-2.25 3.171875 -6.859375 3.171875zm-0.390625 -18.953125q-2.15625 0 -3.1875 1.484375q-1.03125 1.46875 -1.171875 4.578125l8.328125 0l0 -0.46875q-0.140625 -3.015625 -1.09375 -4.296875q-0.9375 -1.296875 -2.875 -1.296875zm18.902344 16.0q1.71875 0 2.75 -1.0625q1.046875 -1.0625 1.140625 -3.03125l3.265625 0q-0.125 3.046875 -2.171875 5.046875q-2.03125 2.0 -4.984375 2.0q-3.921875 0 -5.984375 -2.46875q-2.0625 -2.46875 -2.0625 -7.359375l0 -2.328125q0 -4.78125 2.046875 -7.265625q2.0625 -2.5 5.984375 -2.5q3.234375 0 5.140625 2.0625q1.90625 2.046875 2.03125 5.59375l-3.265625 0q-0.125 -2.34375 -1.125 -3.515625q-1.0 -1.171875 -2.78125 -1.171875q-2.3125 0 -3.421875 1.515625q-1.109375 1.515625 -1.15625 4.96875l0 2.703125q0 3.734375 1.109375 5.28125q1.109375 1.53125 3.484375 1.53125zm16.445312 -7.109375l-1.828125 2.109375l0 7.5625l-3.46875 0l0 -30.0l3.46875 0l0 17.953125l6.578125 -9.09375l4.140625 0l-6.71875 8.828125l7.59375 12.3125l-4.015625 0l-5.75 -9.671875zm11.996094 -1.875q0 -4.609375 2.234375 -7.296875q2.234375 -2.6875 5.90625 -2.6875q3.671875 0 5.90625 2.625q2.234375 2.609375 2.296875 7.125l0 2.234375q0 4.578125 -2.234375 7.265625q-2.21875 2.671875 -5.921875 2.671875q-3.671875 0 -5.890625 -2.59375q-2.21875 -2.609375 -2.296875 -7.03125l0 -2.3125zm3.453125 2.0q0 3.25 1.28125 5.125q1.28125 1.859375 3.453125 1.859375q4.5625 0 4.703125 -6.59375l0 -2.390625q0 -3.234375 -1.296875 -5.125q-1.28125 -1.890625 -3.453125 -1.890625q-2.125 0 -3.40625 1.890625q-1.28125 1.890625 -1.28125 5.109375l0 2.015625zm28.125 7.6875q-1.71875 2.25 -5.015625 2.25q-2.875 0 -4.34375 -1.984375q-1.453125 -1.984375 -1.484375 -5.765625l0 -13.78125l3.4375 0l0 13.515625q0 4.953125 2.96875 4.953125q3.15625 0 4.34375 -2.8125l0 -15.65625l3.453125 0l0 21.140625l-3.28125 0l-0.078125 -1.859375zm13.0859375 -24.390625l0 5.109375l3.1875 0l0 2.796875l-3.1875 0l0 13.109375q0 1.25 0.40625 1.890625q0.421875 0.640625 1.40625 0.640625q0.6875 0 1.390625 -0.234375l-0.03125 2.9375q-1.171875 0.390625 -2.40625 0.390625q-2.046875 0 -3.125 -1.46875q-1.078125 -1.46875 -1.078125 -4.140625l0 -13.125l-3.21875 0l0 -2.796875l3.21875 0l0 -5.109375l3.4375 0z" fill-rule="nonzero"></path><path fill="#cfe2f3" d="m681.74805 436.17978l0 0c0 6.486084 39.046387 11.74411 87.212585 11.74411c48.1662 0 87.212585 -5.258026 87.212585 -11.74411l0 70.46457c0 6.486084 -39.046387 11.74408 -87.212585 11.74408c-48.1662 0 -87.212585 -5.2579956 -87.212585 -11.74408z" fill-rule="nonzero"></path><path fill="#e2edf7" d="m681.74805 436.17978l0 0c0 -6.486084 39.046387 -11.74408 87.212585 -11.74408c48.1662 0 87.212585 5.2579956 87.212585 11.74408l0 0c0 6.486084 -39.046387 11.74411 -87.212585 11.74411c-48.1662 0 -87.212585 -5.258026 -87.212585 -11.74411z" fill-rule="nonzero"></path><path fill="#000000" fill-opacity="0.0" d="m856.1732 436.17978l0 0c0 6.486084 -39.046387 11.74411 -87.212585 11.74411c-48.1662 0 -87.212585 -5.258026 -87.212585 -11.74411l0 0c0 -6.486084 39.046387 -11.74408 87.212585 -11.74408c48.1662 0 87.212585 5.2579956 87.212585 11.74408l0 70.46457c0 6.486084 -39.046387 11.74408 -87.212585 11.74408c-48.1662 0 -87.212585 -5.2579956 -87.212585 -11.74408l0 -70.46457" fill-rule="nonzero"></path><path stroke="#000000" stroke-width="2.0" stroke-linejoin="round" stroke-linecap="butt" d="m856.1732 436.17978l0 0c0 6.486084 -39.046387 11.74411 -87.212585 11.74411c-48.1662 0 -87.212585 -5.258026 -87.212585 -11.74411l0 0c0 -6.486084 39.046387 -11.74408 87.212585 -11.74408c48.1662 0 87.212585 5.2579956 87.212585 11.74408l0 70.46457c0 6.486084 -39.046387 11.74408 -87.212585 11.74408c-48.1662 0 -87.212585 -5.2579956 -87.212585 -11.74408l0 -70.46457" fill-rule="nonzero"></path><path fill="#000000" d="m715.63837 482.65286q-0.234375 4.578125 -2.578125 7.0q-2.328125 2.421875 -6.59375 2.421875q-4.265625 0 -6.796875 -3.25q-2.515625 -3.25 -2.515625 -8.828125l0 -5.15625q0 -5.546875 2.578125 -8.765625q2.59375 -3.21875 7.078125 -3.21875q4.109375 0 6.359375 2.46875q2.265625 2.46875 2.46875 7.0625l-3.625 0q-0.234375 -3.484375 -1.46875 -4.96875q-1.21875 -1.484375 -3.734375 -1.484375q-2.921875 0 -4.484375 2.28125q-1.5625 2.28125 -1.5625 6.671875l0 5.21875q0 4.3125 1.453125 6.625q1.46875 2.296875 4.25 2.296875q2.796875 0 4.03125 -1.390625q1.234375 -1.390625 1.515625 -4.984375l3.625 0zm7.8007812 -9.9375q1.984375 -2.5625 5.046875 -2.5625q5.609375 0 5.6875 7.484375l0 14.046875l-3.4375 0l0 -13.890625q0 -2.484375 -0.84375 -3.515625q-0.828125 -1.046875 -2.484375 -1.046875q-1.28125 0 -2.3125 0.859375q-1.03125 0.859375 -1.65625 2.234375l0 15.359375l-3.453125 0l0 -30.0l3.453125 0l0 11.03125zm23.425781 19.359375q-3.953125 0 -6.0625 -2.34375q-2.109375 -2.359375 -2.140625 -6.921875l0 -2.546875q0 -4.734375 2.0625 -7.421875q2.0625 -2.6875 5.75 -2.6875q3.703125 0 5.53125 2.375q1.84375 2.359375 1.890625 7.359375l0 2.265625l-11.796875 0l0 0.484375q0 3.40625 1.28125 4.953125q1.28125 1.53125 3.671875 1.53125q1.53125 0 2.6875 -0.578125q1.171875 -0.578125 2.1875 -1.828125l1.796875 2.1875q-2.25 3.171875 -6.859375 3.171875zm-0.390625 -18.953125q-2.15625 0 -3.1875 1.484375q-1.03125 1.46875 -1.171875 4.578125l8.328125 0l0 -0.46875q-0.140625 -3.015625 -1.09375 -4.296875q-0.9375 -1.296875 -2.875 -1.296875zm18.902344 16.0q1.71875 0 2.75 -1.0625q1.046875 -1.0625 1.140625 -3.03125l3.265625 0q-0.125 3.046875 -2.171875 5.046875q-2.03125 2.0 -4.984375 2.0q-3.921875 0 -5.984375 -2.46875q-2.0625 -2.46875 -2.0625 -7.359375l0 -2.328125q0 -4.78125 2.046875 -7.265625q2.0625 -2.5 5.984375 -2.5q3.234375 0 5.140625 2.0625q1.90625 2.046875 2.03125 5.59375l-3.265625 0q-0.125 -2.34375 -1.125 -3.515625q-1.0 -1.171875 -2.78125 -1.171875q-2.3125 0 -3.421875 1.515625q-1.109375 1.515625 -1.15625 4.96875l0 2.703125q0 3.734375 1.109375 5.28125q1.109375 1.53125 3.484375 1.53125zm16.445312 -7.109375l-1.828125 2.109375l0 7.5625l-3.46875 0l0 -30.0l3.46875 0l0 17.953125l6.578125 -9.09375l4.140625 0l-6.71875 8.828125l7.59375 12.3125l-4.015625 0l-5.75 -9.671875zm11.996094 -1.875q0 -4.609375 2.234375 -7.296875q2.234375 -2.6875 5.90625 -2.6875q3.671875 0 5.90625 2.625q2.234375 2.609375 2.296875 7.125l0 2.234375q0 4.578125 -2.234375 7.265625q-2.21875 2.671875 -5.921875 2.671875q-3.671875 0 -5.890625 -2.59375q-2.21875 -2.609375 -2.296875 -7.03125l0 -2.3125zm3.453125 2.0q0 3.25 1.28125 5.125q1.28125 1.859375 3.453125 1.859375q4.5625 0 4.703125 -6.59375l0 -2.390625q0 -3.234375 -1.296875 -5.125q-1.28125 -1.890625 -3.453125 -1.890625q-2.125 0 -3.40625 1.890625q-1.28125 1.890625 -1.28125 5.109375l0 2.015625zm28.125 7.6875q-1.71875 2.25 -5.015625 2.25q-2.875 0 -4.34375 -1.984375q-1.453125 -1.984375 -1.484375 -5.765625l0 -13.78125l3.4375 0l0 13.515625q0 4.953125 2.96875 4.953125q3.15625 0 4.34375 -2.8125l0 -15.65625l3.453125 0l0 21.140625l-3.28125 0l-0.078125 -1.859375zm13.0859375 -24.390625l0 5.109375l3.1875 0l0 2.796875l-3.1875 0l0 13.109375q0 1.25 0.40625 1.890625q0.421875 0.640625 1.40625 0.640625q0.6875 0 1.390625 -0.234375l-0.03125 2.9375q-1.171875 0.390625 -2.40625 0.390625q-2.046875 0 -3.125 -1.46875q-1.078125 -1.46875 -1.078125 -4.140625l0 -13.125l-3.21875 0l0 -2.796875l3.21875 0l0 -5.109375l3.4375 0z" fill-rule="nonzero"></path><path fill="#000000" fill-opacity="0.0" d="m431.32285 236.59317l-240.28348 187.84253" fill-rule="nonzero"></path><path stroke="#000000" stroke-width="2.0" stroke-linejoin="round" stroke-linecap="butt" d="m431.32285 236.59317l-230.82948 180.45187" fill-rule="evenodd"></path><path fill="#000000" stroke="#000000" stroke-width="2.0" stroke-linecap="butt" d="m198.45877 414.44244l-5.1159363 8.192505l9.185089 -2.9873657z" fill-rule="evenodd"></path><path fill="#000000" fill-opacity="0.0" d="m480.0 240.0l0 184.44095" fill-rule="nonzero"></path><path stroke="#000000" stroke-width="2.0" stroke-linejoin="round" stroke-linecap="butt" d="m480.0 240.0l0 172.44095" fill-rule="evenodd"></path><path fill="#000000" stroke="#000000" stroke-width="2.0" stroke-linecap="butt" d="m476.69653 412.44095l3.3034668 9.076202l3.3034668 -9.076202z" fill-rule="evenodd"></path><path fill="#000000" fill-opacity="0.0" d="m525.2756 237.44357l243.68506 186.99213" fill-rule="nonzero"></path><path stroke="#000000" stroke-width="2.0" stroke-linejoin="round" stroke-linecap="butt" d="m525.2756 237.44357l234.16498 179.68683" fill-rule="evenodd"></path><path fill="#000000" stroke="#000000" stroke-width="2.0" stroke-linecap="butt" d="m757.42944 419.7512l9.211609 2.9045715l-5.189514 -8.146149z" fill-rule="evenodd"></path></g></svg>

