<?xml version="1.0" standalone="yes"?>

<svg version="1.1" viewBox="0.0 0.0 829.0 488.0" fill="none" stroke="none" stroke-linecap="square" stroke-miterlimit="10" xmlns="http://www.w3.org/2000/svg" xmlns:xlink="http://www.w3.org/1999/xlink"><clipPath id="p.0"><path d="m0 0l829.0 0l0 488.0l-829.0 0l0 -488.0z" clip-rule="nonzero"></path></clipPath><g clip-path="url(#p.0)"><path fill="#000000" fill-opacity="0.0" d="m0 0l829.9685 0l0 488.59055l-829.9685 0z" fill-rule="nonzero"></path><path fill="#000000" fill-opacity="0.0" d="m14.490813 14.488189l154.86613 0l0 106.86614l-154.86613 0z" fill-rule="nonzero"></path><path fill="#000000" d="m56.79888 49.348816l2.5625 -12.046875l2.734375 0l-4.140625 16.90625l-2.203125 0l-3.296875 -12.09375l-3.21875 12.09375l-2.21875 0l-4.109375 -16.90625l2.71875 0l2.625 11.75l3.140625 -11.75l2.1875 0l3.21875 12.046875zm7.609375 -4.375q0 -3.6875 1.78125 -5.828125q1.796875 -2.15625 4.734375 -2.15625q2.9375 0 4.71875 2.09375q1.796875 2.09375 1.84375 5.703125l0 1.78125q0 3.671875 -1.78125 5.8125q-1.78125 2.140625 -4.75 2.140625q-2.9375 0 -4.71875 -2.078125q-1.765625 -2.078125 -1.828125 -5.625l0 -1.84375zm2.765625 1.59375q0 2.609375 1.015625 4.109375q1.03125 1.484375 2.765625 1.484375q3.65625 0 3.765625 -5.28125l0 -1.90625q0 -2.59375 -1.03125 -4.09375q-1.03125 -1.515625 -2.765625 -1.515625q-1.703125 0 -2.734375 1.515625q-1.015625 1.5 -1.015625 4.078125l0 1.609375zm20.859375 -6.671875q-0.578125 -0.109375 -1.25 -0.109375q-2.125 0 -2.96875 2.328125l0 12.09375l-2.765625 0l0 -16.90625l2.6875 0l0.046875 1.71875q1.109375 -2.03125 3.140625 -2.03125q0.65625 0 1.09375 0.21875l0.015625 2.6875zm7.0 6.578125l-1.46875 1.6875l0 6.046875l-2.765625 0l0 -24.0l2.765625 0l0 14.359375l5.265625 -7.265625l3.3125 0l-5.375 7.0625l6.078125 9.84375l-3.21875 0l-4.59375 -7.734375zm13.15625 7.734375l-2.765625 0l0 -16.90625l2.765625 0l0 16.90625zm0.21875 -21.390625q0 0.703125 -0.390625 1.171875q-0.390625 0.46875 -1.1875 0.46875q-0.78125 0 -1.171875 -0.46875q-0.390625 -0.46875 -0.390625 -1.171875q0 -0.703125 0.390625 -1.1875q0.390625 -0.484375 1.171875 -0.484375q0.78125 0 1.171875 0.5q0.40625 0.484375 0.40625 1.171875zm6.734375 4.484375l0.078125 1.828125q1.609375 -2.140625 4.109375 -2.140625q4.484375 0 4.546875 5.984375l0 11.234375l-2.75 0l0 -11.109375q0 -1.984375 -0.671875 -2.8125q-0.65625 -0.84375 -1.984375 -0.84375q-1.03125 0 -1.859375 0.6875q-0.8125 0.6875 -1.3125 1.796875l0 12.28125l-2.765625 0l0 -16.90625l2.609375 0zm12.328125 7.6875q0 -3.953125 1.4374924 -5.96875q1.4375 -2.03125 4.203125 -2.03125q2.578125 0 3.921875 2.203125l0.140625 -1.890625l2.5 0l0 17.0625q0 3.140625 -1.609375 4.8125q-1.609375 1.6875 -4.484375 1.6875q-1.25 0 -2.8125 -0.625q-1.546875 -0.609375 -2.328125 -1.515625l1.125 -1.90625q1.71875 1.6875 3.796875 1.6875q3.453125 0 3.546875 -3.765625l0 -2.203125q-1.34375 1.984375 -3.8125 1.984375q-2.625 0 -4.09375 -1.96875q-1.4687424 -1.984375 -1.5312424 -5.6875l0 -1.875zm2.7656174 1.578125q0 2.84375 0.828125 4.1875q0.84375 1.328125 2.75 1.328125q2.0625 0 3.09375 -2.109375l0 -8.453125q-1.078125 -2.078125 -3.0625 -2.078125q-1.90625 0 -2.75 1.34375q-0.84375 1.328125 -0.859375 4.09375l0 1.6875z" fill-rule="nonzero"></path><path fill="#000000" d="m37.76763 82.98944q0 -3.90625 1.453125 -5.953125q1.46875 -2.046875 4.203125 -2.046875q2.421875 0 3.78125 1.96875l0 -8.75l2.765625 0l0 24.0l-2.53125 0l-0.140625 -1.8125q-1.359375 2.125 -3.890625 2.125q-2.625 0 -4.125 -2.03125q-1.484375 -2.046875 -1.515625 -5.765625l0 -1.734375zm2.765625 1.578125q0 2.84375 0.84375 4.1875q0.84375 1.328125 2.75 1.328125q2.0625 0 3.078125 -2.078125l0 -8.53125q-1.0625 -2.03125 -3.0625 -2.03125q-1.90625 0 -2.75 1.34375q-0.84375 1.328125 -0.859375 4.09375l0 1.6875zm16.671875 7.640625l-2.765625 0l0 -16.90625l2.765625 0l0 16.90625zm0.21875 -21.390625q0 0.703125 -0.390625 1.171875q-0.390625 0.46875 -1.1875 0.46875q-0.78125 0 -1.171875 -0.46875q-0.390625 -0.46875 -0.390625 -1.171875q0 -0.703125 0.390625 -1.1875q0.390625 -0.484375 1.171875 -0.484375q0.78125 0 1.171875 0.5q0.40625 0.484375 0.40625 1.171875zm11.109375 7.078125q-0.578125 -0.109375 -1.25 -0.109375q-2.125 0 -2.96875 2.328125l0 12.09375l-2.765625 0l0 -16.90625l2.6875 0l0.046875 1.71875q1.109375 -2.03125 3.140625 -2.03125q0.65625 0 1.09375 0.21875l0.015625 2.6875zm8.796875 14.625q-3.15625 0 -4.84375 -1.875q-1.6875 -1.890625 -1.71875 -5.53125l0 -2.046875q0 -3.78125 1.640625 -5.921875q1.65625 -2.15625 4.609375 -2.15625q2.96875 0 4.4375 1.890625q1.46875 1.890625 1.5 5.890625l0 1.8125l-9.4375 0l0 0.390625q0 2.71875 1.015625 3.953125q1.03125 1.234375 2.953125 1.234375q1.21875 0 2.140625 -0.453125q0.9375 -0.46875 1.75 -1.46875l1.4375 1.75q-1.796875 2.53125 -5.484375 2.53125zm-0.3125 -15.15625q-1.71875 0 -2.546875 1.1875q-0.828125 1.171875 -0.9375 3.65625l6.65625 0l0 -0.375q-0.109375 -2.40625 -0.875 -3.4375q-0.75 -1.03125 -2.296875 -1.03125zm15.125 12.796875q1.375 0 2.203125 -0.84375q0.828125 -0.859375 0.90625 -2.4375l2.609375 0q-0.09375 2.4375 -1.734375 4.046875q-1.625 1.59375 -3.984375 1.59375q-3.140625 0 -4.796875 -1.96875q-1.640625 -1.984375 -1.640625 -5.890625l0 -1.859375q0 -3.828125 1.640625 -5.8125q1.640625 -2.0 4.78125 -2.0q2.59375 0 4.109375 1.640625q1.53125 1.640625 1.625 4.484375l-2.609375 0q-0.09375 -1.875 -0.90625 -2.8125q-0.796875 -0.9375 -2.21875 -0.9375q-1.84375 0 -2.734375 1.21875q-0.890625 1.203125 -0.921875 3.96875l0 2.15625q0 2.984375 0.875 4.21875q0.890625 1.234375 2.796875 1.234375zm12.53125 -18.953125l0 4.09375l2.546875 0l0 2.234375l-2.546875 0l0 10.484375q0 1.0 0.328125 1.515625q0.328125 0.515625 1.125 0.515625q0.546875 0 1.109375 -0.1875l-0.03125 2.34375q-0.9375 0.3125 -1.921875 0.3125q-1.640625 0 -2.5 -1.171875q-0.859375 -1.171875 -0.859375 -3.3125l0 -10.5l-2.578125 0l0 -2.234375l2.578125 0l0 -4.09375l2.75 0zm5.25 11.765625q0 -3.6875 1.78125 -5.828125q1.796875 -2.15625 4.734375 -2.15625q2.9375 0 4.71875 2.09375q1.796875 2.09375 1.84375 5.703125l0 1.78125q0 3.671875 -1.78125 5.8125q-1.78125 2.140625 -4.75 2.140625q-2.9375 0 -4.71875 -2.078125q-1.765625 -2.078125 -1.828125 -5.625l0 -1.84375zm2.765625 1.59375q0 2.609375 1.015625 4.109375q1.03125 1.484375 2.765625 1.484375q3.65625 0 3.765625 -5.28125l0 -1.90625q0 -2.59375 -1.03125 -4.09375q-1.03125 -1.515625 -2.765625 -1.515625q-1.703125 0 -2.734375 1.515625q-1.015625 1.5 -1.015625 4.078125l0 1.609375zm20.859367 -6.671875q-0.578125 -0.109375 -1.25 -0.109375q-2.125 0 -2.96875 2.328125l0 12.09375l-2.7656174 0l0 -16.90625l2.6874924 0l0.046875 1.71875q1.109375 -2.03125 3.140625 -2.03125q0.65625 0 1.09375 0.21875l0.015625 2.6875zm7.375 9.71875l3.0781403 -12.3125l2.9375 0l-5.5312653 19.296875q-0.625 2.171875 -1.765625 3.296875q-1.140625 1.140625 -2.59375 1.140625q-0.5625 0 -1.4375 -0.25l0 -2.34375l0.609375 0.0625q1.203125 0 1.875 -0.578125q0.6875 -0.5625 1.109375 -1.96875l0.546875 -1.890625l-4.96875 -16.765625l3.015625 0l3.125 12.3125z" fill-rule="nonzero"></path><path fill="#000000" fill-opacity="0.0" d="m269.437 14.488189l276.22046 0l0 106.86614l-276.22046 0z" fill-rule="nonzero"></path><path fill="#000000" d="m378.73474 54.20819l-2.765625 0l0 -16.90625l2.765625 0l0 16.90625zm0.21875 -21.390625q0 0.703125 -0.390625 1.171875q-0.390625 0.46875 -1.1875 0.46875q-0.78125 0 -1.171875 -0.46875q-0.390625 -0.46875 -0.390625 -1.171875q0 -0.703125 0.390625 -1.1875q0.390625 -0.484375 1.171875 -0.484375q0.78125 0 1.171875 0.5q0.40625 0.484375 0.40625 1.171875zm6.734375 4.484375l0.078125 1.828125q1.609375 -2.140625 4.109375 -2.140625q4.484375 0 4.546875 5.984375l0 11.234375l-2.75 0l0 -11.109375q0 -1.984375 -0.671875 -2.8125q-0.65625 -0.84375 -1.984375 -0.84375q-1.03125 0 -1.859375 0.6875q-0.8125 0.6875 -1.3125 1.796875l0 12.28125l-2.765625 0l0 -16.90625l2.609375 0zm12.296875 7.6875q0 -3.90625 1.453125 -5.953125q1.46875 -2.046875 4.203125 -2.046875q2.421875 0 3.78125 1.96875l0 -8.75l2.765625 0l0 24.0l-2.53125 0l-0.140625 -1.8125q-1.359375 2.125 -3.890625 2.125q-2.625 0 -4.125 -2.03125q-1.484375 -2.046875 -1.515625 -5.765625l0 -1.734375zm2.765625 1.578125q0 2.84375 0.84375 4.1875q0.84375 1.328125 2.75 1.328125q2.0625 0 3.078125 -2.078125l0 -8.53125q-1.0625 -2.03125 -3.0625 -2.03125q-1.90625 0 -2.75 1.34375q-0.84375 1.328125 -0.859375 4.09375l0 1.6875zm19.734375 7.953125q-3.15625 0 -4.84375 -1.875q-1.6875 -1.890625 -1.71875 -5.53125l0 -2.046875q0 -3.78125 1.640625 -5.921875q1.65625 -2.15625 4.609375 -2.15625q2.96875 0 4.4375 1.890625q1.46875 1.890625 1.5 5.890625l0 1.8125l-9.4375 0l0 0.390625q0 2.71875 1.015625 3.953125q1.03125 1.234375 2.953125 1.234375q1.21875 0 2.140625 -0.453125q0.9375 -0.46875 1.75 -1.46875l1.4375 1.75q-1.796875 2.53125 -5.484375 2.53125zm-0.3125 -15.15625q-1.71875 0 -2.546875 1.1875q-0.828125 1.171875 -0.9375 3.65625l6.65625 0l0 -0.375q-0.109375 -2.40625 -0.875 -3.4375q-0.75 -1.03125 -2.296875 -1.03125zm14.140625 4.109375l2.890625 -6.171875l3.203125 0l-4.59375 8.359375l4.703125 8.546875l-3.171875 0l-2.984375 -6.328125l-3.0 6.328125l-3.1875 0l4.703125 -8.546875l-4.578125 -8.359375l3.171875 0l2.84375 6.171875z" fill-rule="nonzero"></path><path fill="#000000" d="m310.50037 82.973816q0 -4.09375 1.109375 -7.703125q1.109375 -3.609375 3.140625 -6.328125q1.234375 -1.640625 2.375 -2.40625l0.546875 1.90625q-1.875 1.796875 -3.078125 5.421875q-1.203125 3.609375 -1.3125 8.03125l-0.015625 1.265625q0 5.5 1.546875 9.71875q1.171875 3.171875 2.859375 4.90625l-0.546875 1.765625q-1.4375 -0.96875 -2.921875 -3.1875q-3.703125 -5.578125 -3.703125 -13.390625zm12.046875 -15.0625l1.5625 1.125q-1.234375 2.03125 -1.28125 4.25l0 2.15625l-2.734375 0l0 -1.8125q0 -1.578125 0.6875 -3.15625q0.6875 -1.59375 1.765625 -2.5625zm5.0 0l1.5625 1.125q-1.234375 2.03125 -1.28125 4.25l0 2.15625l-2.734375 0l0 -1.8125q0 -1.578125 0.6875 -3.15625q0.6875 -1.59375 1.765625 -2.5625zm11.953125 19.96875q0 -0.890625 -0.671875 -1.53125q-0.671875 -0.640625 -2.59375 -1.5q-2.234375 -0.921875 -3.15625 -1.578125q-0.90625 -0.65625 -1.359375 -1.484375q-0.453125 -0.84375 -0.453125 -2.0q0 -2.0625 1.5 -3.421875q1.515625 -1.375 3.859375 -1.375q2.46875 0 3.96875 1.4375q1.5 1.4375 1.5 3.6875l-2.75 0q0 -1.140625 -0.765625 -1.9375q-0.765625 -0.8125 -1.953125 -0.8125q-1.21875 0 -1.921875 0.640625q-0.6875 0.625 -0.6875 1.6875q0 0.84375 0.5 1.359375q0.515625 0.515625 2.453125 1.359375q3.078125 1.203125 4.1875 2.359375q1.109375 1.140625 1.109375 2.90625q0 2.203125 -1.515625 3.53125q-1.515625 1.3125 -4.0625 1.3125q-2.640625 0 -4.28125 -1.515625q-1.640625 -1.515625 -1.640625 -3.84375l2.78125 0q0.046875 1.40625 0.859375 2.203125q0.8125 0.796875 2.28125 0.796875q1.375 0 2.09375 -0.609375q0.71875 -0.625 0.71875 -1.671875zm9.984375 -16.671875l0 4.09375l2.546875 0l0 2.234375l-2.546875 0l0 10.484375q0 1.0 0.328125 1.515625q0.328125 0.515625 1.125 0.515625q0.546875 0 1.109375 -0.1875l-0.03125 2.34375q-0.9375 0.3125 -1.921875 0.3125q-1.640625 0 -2.5 -1.171875q-0.859375 -1.171875 -0.859375 -3.3125l0 -10.5l-2.578125 0l0 -2.234375l2.578125 0l0 -4.09375l2.75 0zm14.53125 21.0q-0.25 -0.546875 -0.359375 -1.84375q-1.46875 2.15625 -3.75 2.15625q-2.296875 0 -3.59375 -1.28125q-1.28125 -1.296875 -1.28125 -3.640625q0 -2.578125 1.75 -4.09375q1.75 -1.515625 4.796875 -1.546875l2.03125 0l0 -1.796875q0 -1.515625 -0.671875 -2.15625q-0.671875 -0.640625 -2.046875 -0.640625q-1.25 0 -2.03125 0.75q-0.78125 0.734375 -0.78125 1.875l-2.765625 0q0 -1.296875 0.765625 -2.46875q0.765625 -1.1875 2.0625 -1.859375q1.296875 -0.671875 2.890625 -0.671875q2.59375 0 3.9375 1.296875q1.359375 1.28125 1.390625 3.75l0 8.53125q0.015625 1.953125 0.53125 3.390625l0 0.25l-2.875 0zm-3.6875 -2.203125q1.015625 0 1.9375 -0.5625q0.921875 -0.5625 1.34375 -1.40625l0 -4.03125l-1.5625 0q-1.96875 0.03125 -3.109375 0.890625q-1.140625 0.84375 -1.140625 2.375q0 1.4375 0.578125 2.09375q0.578125 0.640625 1.953125 0.640625zm9.765625 -7.015625q0 -3.953125 1.4375 -5.96875q1.4375 -2.03125 4.203125 -2.03125q2.578125 0 3.921875 2.203125l0.140625 -1.890625l2.5 0l0 17.0625q0 3.140625 -1.609375 4.8125q-1.609375 1.6875 -4.484375 1.6875q-1.25 0 -2.8125 -0.625q-1.546875 -0.609375 -2.328125 -1.515625l1.125 -1.90625q1.71875 1.6875 3.796875 1.6875q3.453125 0 3.546875 -3.765625l0 -2.203125q-1.34375 1.984375 -3.8125 1.984375q-2.625 0 -4.09375 -1.96875q-1.46875 -1.984375 -1.53125 -5.6875l0 -1.875zm2.765625 1.578125q0 2.84375 0.828125 4.1875q0.84375 1.328125 2.75 1.328125q2.0625 0 3.09375 -2.109375l0 -8.453125q-1.078125 -2.078125 -3.0625 -2.078125q-1.90625 0 -2.75 1.34375q-0.84375 1.328125 -0.859375 4.09375l0 1.6875zm16.53125 7.640625l-2.765625 0l0 -16.90625l2.765625 0l0 16.90625zm0.21875 -21.390625q0 0.703125 -0.390625 1.171875q-0.390625 0.46875 -1.1875 0.46875q-0.78125 0 -1.171875 -0.46875q-0.390625 -0.46875 -0.390625 -1.171875q0 -0.703125 0.390625 -1.1875q0.390625 -0.484375 1.171875 -0.484375q0.78125 0 1.171875 0.5q0.40625 0.484375 0.40625 1.171875zm6.734375 4.484375l0.078125 1.828125q1.609375 -2.140625 4.109375 -2.140625q4.484375 0 4.546875 5.984375l0 11.234375l-2.75 0l0 -11.109375q0 -1.984375 -0.671875 -2.8125q-0.65625 -0.84375 -1.984375 -0.84375q-1.03125 0 -1.859375 0.6875q-0.8125 0.6875 -1.3125 1.796875l0 12.28125l-2.765625 0l0 -16.90625l2.609375 0zm12.328125 7.6875q0 -3.953125 1.4375 -5.96875q1.4375 -2.03125 4.203125 -2.03125q2.578125 0 3.921875 2.203125l0.140625 -1.890625l2.5 0l0 17.0625q0 3.140625 -1.609375 4.8125q-1.609375 1.6875 -4.484375 1.6875q-1.25 0 -2.8125 -0.625q-1.546875 -0.609375 -2.328125 -1.515625l1.125 -1.90625q1.71875 1.6875 3.796875 1.6875q3.453125 0 3.546875 -3.765625l0 -2.203125q-1.34375 1.984375 -3.8125 1.984375q-2.625 0 -4.09375 -1.96875q-1.46875 -1.984375 -1.53125 -5.6875l0 -1.875zm2.765625 1.578125q0 2.84375 0.828125 4.1875q0.84375 1.328125 2.75 1.328125q2.0625 0 3.09375 -2.109375l0 -8.453125q-1.078125 -2.078125 -3.0625 -2.078125q-1.90625 0 -2.75 1.34375q-0.84375 1.328125 -0.859375 4.09375l0 1.6875zm29.578125 7.640625q-0.25 -0.546875 -0.359375 -1.84375q-1.46875 2.15625 -3.75 2.15625q-2.296875 0 -3.59375 -1.28125q-1.28125 -1.296875 -1.28125 -3.640625q0 -2.578125 1.75 -4.09375q1.75 -1.515625 4.796875 -1.546875l2.03125 0l0 -1.796875q0 -1.515625 -0.671875 -2.15625q-0.671875 -0.640625 -2.046875 -0.640625q-1.25 0 -2.03125 0.75q-0.78125 0.734375 -0.78125 1.875l-2.765625 0q0 -1.296875 0.765625 -2.46875q0.765625 -1.1875 2.0625 -1.859375q1.296875 -0.671875 2.890625 -0.671875q2.59375 0 3.9375 1.296875q1.359375 1.28125 1.390625 3.75l0 8.53125q0.015625 1.953125 0.53125 3.390625l0 0.25l-2.875 0zm-3.6875 -2.203125q1.015625 0 1.9375 -0.5625q0.921875 -0.5625 1.34375 -1.40625l0 -4.03125l-1.5625 0q-1.96875 0.03125 -3.109375 0.890625q-1.140625 0.84375 -1.140625 2.375q0 1.4375 0.578125 2.09375q0.578125 0.640625 1.953125 0.640625zm17.296875 -12.109375q-0.578125 -0.109375 -1.25 -0.109375q-2.125 0 -2.96875 2.328125l0 12.09375l-2.765625 0l0 -16.90625l2.6875 0l0.046875 1.71875q1.109375 -2.03125 3.140625 -2.03125q0.65625 0 1.09375 0.21875l0.015625 2.6875zm8.796875 14.625q-3.15625 0 -4.84375 -1.875q-1.6875 -1.890625 -1.71875 -5.53125l0 -2.046875q0 -3.78125 1.640625 -5.921875q1.65625 -2.15625 4.609375 -2.15625q2.96875 0 4.4375 1.890625q1.46875 1.890625 1.5 5.890625l0 1.8125l-9.4375 0l0 0.390625q0 2.71875 1.015625 3.953125q1.03125 1.234375 2.953125 1.234375q1.21875 0 2.140625 -0.453125q0.9375 -0.46875 1.75 -1.46875l1.4375 1.75q-1.796875 2.53125 -5.484375 2.53125zm-0.3125 -15.15625q-1.71875 0 -2.546875 1.1875q-0.828125 1.171875 -0.9375 3.65625l6.65625 0l0 -0.375q-0.109375 -2.40625 -0.875 -3.4375q-0.75 -1.03125 -2.296875 -1.03125zm17.953125 14.84375q-0.25 -0.546875 -0.359375 -1.84375q-1.46875 2.15625 -3.75 2.15625q-2.296875 0 -3.59375 -1.28125q-1.28125 -1.296875 -1.28125 -3.640625q0 -2.578125 1.75 -4.09375q1.75 -1.515625 4.796875 -1.546875l2.03125 0l0 -1.796875q0 -1.515625 -0.671875 -2.15625q-0.671875 -0.640625 -2.046875 -0.640625q-1.25 0 -2.03125 0.75q-0.78125 0.734375 -0.78125 1.875l-2.765625 0q0 -1.296875 0.765625 -2.46875q0.765625 -1.1875 2.0625 -1.859375q1.296875 -0.671875 2.890625 -0.671875q2.59375 0 3.9375 1.296875q1.359375 1.28125 1.390625 3.75l0 8.53125q0.015625 1.953125 0.53125 3.390625l0 0.25l-2.875 0zm-3.6875 -2.203125q1.015625 0 1.9375 -0.5625q0.921875 -0.5625 1.34375 -1.40625l0 -4.03125l-1.5625 0q-1.96875 0.03125 -3.109375 0.890625q-1.140625 0.84375 -1.140625 2.375q0 1.4375 0.578125 2.09375q0.578125 0.640625 1.953125 0.640625zm10.671875 -14.140625l-1.546875 -1.125q1.21875 -2.046875 1.265625 -4.25l0 -2.28125l2.734375 0l0 2.109375q-0.03125 1.5 -0.703125 3.046875q-0.65625 1.53125 -1.75 2.5zm5.0 0l-1.546875 -1.125q1.21875 -2.046875 1.265625 -4.25l0 -2.28125l2.734375 0l0 2.109375q-0.03125 1.5 -0.703125 3.046875q-0.65625 1.53125 -1.75 2.5zm11.390625 7.265625q0 6.96875 -3.125 12.328125q-1.6875 2.875 -3.5 4.09375l-0.546875 -1.765625q1.96875 -1.890625 3.171875 -5.765625q1.203125 -3.890625 1.234375 -8.515625l0 -0.5625q0 -5.9375 -1.953125 -10.625q-1.078125 -2.5625 -2.453125 -4.015625l0.546875 -1.765625q1.71875 1.15625 3.328125 3.796875q3.296875 5.4375 3.296875 12.796875z" fill-rule="nonzero"></path><path fill="#000000" fill-opacity="0.0" d="m584.3858 35.322834l276.22052 0l0 65.19685l-276.22052 0z" fill-rule="nonzero"></path><path fill="#000000" d="m668.0195 60.730335q-0.578125 -0.109375 -1.25 -0.109375q-2.125 0 -2.96875 2.328125l0 12.093754l-2.765625 0l0 -16.906254l2.6875 0l0.046875 1.71875q1.109375 -2.03125 3.140625 -2.03125q0.65625 0 1.09375 0.21875l0.015625 2.6875zm8.796875 14.625004q-3.15625 0 -4.84375 -1.875q-1.6875 -1.890625 -1.71875 -5.53125l0 -2.046875q0 -3.7812538 1.640625 -5.921879q1.65625 -2.15625 4.609375 -2.15625q2.96875 0 4.4375 1.890625q1.46875 1.890625 1.5 5.890629l0 1.8125l-9.4375 0l0 0.390625q0 2.71875 1.015625 3.953125q1.03125 1.234375 2.953125 1.234375q1.21875 0 2.140625 -0.453125q0.9375 -0.46875 1.75 -1.46875l1.4375 1.75q-1.796875 2.53125 -5.484375 2.53125zm-0.3125 -15.156254q-1.71875 0 -2.546875 1.1875q-0.828125 1.171875 -0.9375 3.6562538l6.65625 0l0 -0.375q-0.109375 -2.4062538 -0.875 -3.4375038q-0.75 -1.03125 -2.296875 -1.03125zm21.46875 7.203129q0 4.015625 -1.453125 5.984375q-1.4375 1.96875 -4.078125 1.96875q-2.546875 0 -3.921875 -1.921875l0 8.109375l-2.75 0l0 -23.406254l2.5 0l0.140625 1.875q1.390625 -2.1875 3.984375 -2.1875q2.78125 0 4.15625 1.9375q1.375 1.9375 1.421875 5.796879l0 1.84375zm-2.75 -1.578125q0 -2.8437538 -0.875 -4.187504q-0.875 -1.359375 -2.8125 -1.359375q-1.984375 0 -3.015625 1.984375l0 8.796879q1.015625 1.9375 3.046875 1.9375q1.875 0 2.75 -1.34375q0.890625 -1.359375 0.90625 -4.140625l0 -1.6875zm5.734375 -0.015625q0 -3.6875038 1.78125 -5.828129q1.796875 -2.15625 4.734375 -2.15625q2.9375 0 4.71875 2.09375q1.796875 2.09375 1.84375 5.703129l0 1.78125q0 3.671875 -1.78125 5.8125q-1.78125 2.140625 -4.75 2.140625q-2.9375 0 -4.71875 -2.078125q-1.765625 -2.078125 -1.828125 -5.625l0 -1.84375zm2.765625 1.59375q0 2.609375 1.015625 4.109375q1.03125 1.484375 2.765625 1.484375q3.65625 0 3.765625 -5.28125l0 -1.90625q0 -2.5937538 -1.03125 -4.093754q-1.03125 -1.515625 -2.765625 -1.515625q-1.703125 0 -2.734375 1.515625q-1.015625 1.5 -1.015625 4.078129l0 1.609375zm22.09375 3.3125q0 -0.890625 -0.671875 -1.53125q-0.671875 -0.640625 -2.59375 -1.5q-2.234375 -0.921875 -3.15625 -1.578125q-0.90625 -0.65625 -1.359375 -1.484375q-0.453125 -0.8437538 -0.453125 -2.0000038q0 -2.0625 1.5 -3.421875q1.515625 -1.375 3.859375 -1.375q2.46875 0 3.96875 1.4375q1.5 1.4375 1.5 3.6875l-2.75 0q0 -1.140625 -0.765625 -1.9375q-0.765625 -0.8125 -1.953125 -0.8125q-1.21875 0 -1.921875 0.640625q-0.6875 0.625 -0.6875 1.6875q0 0.84375 0.5 1.359375q0.515625 0.5156288 2.453125 1.3593788q3.078125 1.203125 4.1875 2.359375q1.109375 1.140625 1.109375 2.90625q0 2.203125 -1.515625 3.53125q-1.515625 1.3125 -4.0625 1.3125q-2.640625 0 -4.28125 -1.515625q-1.640625 -1.515625 -1.640625 -3.84375l2.78125 0q0.046875 1.40625 0.859375 2.203125q0.8125 0.796875 2.28125 0.796875q1.375 0 2.09375 -0.609375q0.71875 -0.625 0.71875 -1.671875zm9.34375 4.328125l-2.765625 0l0 -16.906254l2.765625 0l0 16.906254zm0.21875 -21.390629q0 0.703125 -0.390625 1.171875q-0.390625 0.46875 -1.1875 0.46875q-0.78125 0 -1.171875 -0.46875q-0.390625 -0.46875 -0.390625 -1.171875q0 -0.703125 0.390625 -1.1875q0.390625 -0.484375 1.171875 -0.484375q0.78125 0 1.171875 0.5q0.40625 0.484375 0.40625 1.171875zm7.75 0.390625l0 4.09375l2.546875 0l0 2.234375l-2.546875 0l0 10.484379q0 1.0 0.328125 1.515625q0.328125 0.515625 1.125 0.515625q0.546875 0 1.109375 -0.1875l-0.03125 2.34375q-0.9375 0.3125 -1.921875 0.3125q-1.640625 0 -2.5 -1.171875q-0.859375 -1.171875 -0.859375 -3.3125l0 -10.500004l-2.578125 0l0 -2.234375l2.578125 0l0 -4.09375l2.75 0zm5.25 11.765629q0 -3.6875038 1.78125 -5.828129q1.796875 -2.15625 4.734375 -2.15625q2.9375 0 4.71875 2.09375q1.796875 2.09375 1.84375 5.703129l0 1.78125q0 3.671875 -1.78125 5.8125q-1.78125 2.140625 -4.75 2.140625q-2.9375 0 -4.71875 -2.078125q-1.765625 -2.078125 -1.828125 -5.625l0 -1.84375zm2.765625 1.59375q0 2.609375 1.015625 4.109375q1.03125 1.484375 2.765625 1.484375q3.65625 0 3.765625 -5.28125l0 -1.90625q0 -2.5937538 -1.03125 -4.093754q-1.03125 -1.515625 -2.765625 -1.515625q-1.703125 0 -2.734375 1.515625q-1.015625 1.5 -1.015625 4.078129l0 1.609375zm20.859375 -6.671879q-0.578125 -0.109375 -1.25 -0.109375q-2.125 0 -2.96875 2.328125l0 12.093754l-2.765625 0l0 -16.906254l2.6875 0l0.046875 1.71875q1.109375 -2.03125 3.140625 -2.03125q0.65625 0 1.09375 0.21875l0.015625 2.6875zm7.375 9.718754l3.078125 -12.312504l2.9375 0l-5.53125 19.296879q-0.625 2.171875 -1.765625 3.296875q-1.140625 1.140625 -2.59375 1.140625q-0.5625 0 -1.4375 -0.25l0 -2.34375l0.609375 0.0625q1.203125 0 1.875 -0.578125q0.6875 -0.5625 1.109375 -1.96875l0.546875 -1.890625l-4.96875 -16.765629l3.015625 0l3.125 12.312504z" fill-rule="nonzero"></path><path fill="#000000" fill-opacity="0.0" d="m91.92388 121.35433l1.354332 336.0" fill-rule="nonzero"></path><path stroke="#000000" stroke-width="3.0" stroke-linejoin="round" stroke-linecap="butt" d="m91.92388 121.35433l1.354332 336.0" fill-rule="nonzero"></path><path fill="#000000" fill-opacity="0.0" d="m406.8714 121.35433l1.3543091 336.0" fill-rule="nonzero"></path><path stroke="#000000" stroke-width="3.0" stroke-linejoin="round" stroke-linecap="butt" d="m406.8714 121.35433l1.3543091 336.0" fill-rule="nonzero"></path><path fill="#000000" fill-opacity="0.0" d="m721.8189 121.35433l1.3543091 336.0" fill-rule="nonzero"></path><path stroke="#000000" stroke-width="3.0" stroke-linejoin="round" stroke-linecap="butt" d="m721.8189 121.35433l1.3543091 336.0" fill-rule="nonzero"></path><path fill="#f9cb9c" d="m105.05774 221.43045l49.35434 -49.35434l0 24.67717l561.0078 0l0 49.354324l-561.0078 0l0 24.677185z" fill-rule="nonzero"></path><path stroke="#000000" stroke-width="2.0" stroke-linejoin="round" stroke-linecap="butt" d="m105.05774 221.43045l49.35434 -49.35434l0 24.67717l561.0078 0l0 49.354324l-561.0078 0l0 24.677185z" fill-rule="nonzero"></path><path fill="#f9cb9c" d="m105.05774 302.71915l241.48032 0l0 -24.677155l49.35434 49.35434l-49.35434 49.35434l0 -24.677185l-241.48032 0z" fill-rule="nonzero"></path><path stroke="#000000" stroke-width="2.0" stroke-linejoin="round" stroke-linecap="butt" d="m105.05774 302.71915l241.48032 0l0 -24.677155l49.35434 49.35434l-49.35434 49.35434l0 -24.677185l-241.48032 0z" fill-rule="nonzero"></path><path fill="#000000" fill-opacity="0.0" d="m521.56696 191.00525l184.75586 0l0 60.850403l-184.75586 0z" fill-rule="nonzero"></path><path fill="#000000" d="m532.0826 221.5065q0 -3.953125 1.4375 -5.96875q1.4375 -2.03125 4.203125 -2.03125q2.578125 0 3.921875 2.203125l0.140625 -1.890625l2.5 0l0 17.0625q0 3.140625 -1.609375 4.8125q-1.609375 1.6875 -4.484375 1.6875q-1.25 0 -2.8125 -0.625q-1.546875 -0.609375 -2.328125 -1.515625l1.125 -1.90625q1.71875 1.6875 3.796875 1.6875q3.453125 0 3.546875 -3.765625l0 -2.203125q-1.34375 1.984375 -3.8125 1.984375q-2.625 0 -4.09375 -1.96875q-1.46875 -1.984375 -1.53125 -5.6875l0 -1.875zm2.765625 1.578125q0 2.84375 0.828125 4.1875q0.84375 1.328125 2.75 1.328125q2.0625 0 3.09375 -2.109375l0 -8.453125q-1.078125 -2.078125 -3.0625 -2.078125q-1.90625 0 -2.75 1.34375q-0.84375 1.328125 -0.859375 4.09375l0 1.6875zm16.53125 7.640625l-2.765625 0l0 -16.90625l2.765625 0l0 16.90625zm0.21875 -21.390625q0 0.703125 -0.390625 1.171875q-0.390625 0.46875 -1.1875 0.46875q-0.78125 0 -1.171875 -0.46875q-0.390625 -0.46875 -0.390625 -1.171875q0 -0.703125 0.390625 -1.1875q0.390625 -0.484375 1.171875 -0.484375q0.78125 0 1.171875 0.5q0.40625 0.484375 0.40625 1.171875zm7.75 0.390625l0 4.09375l2.546875 0l0 2.234375l-2.546875 0l0 10.484375q0 1.0 0.328125 1.515625q0.328125 0.515625 1.125 0.515625q0.546875 0 1.109375 -0.1875l-0.03125 2.34375q-0.9375 0.3125 -1.921875 0.3125q-1.640625 0 -2.5 -1.171875q-0.859375 -1.171875 -0.859375 -3.3125l0 -10.5l-2.578125 0l0 -2.234375l2.578125 0l0 -4.09375l2.75 0zm19.03125 18.953125q1.375 0 2.203125 -0.84375q0.828125 -0.859375 0.90625 -2.4375l2.609375 0q-0.09375 2.4375 -1.734375 4.046875q-1.625 1.59375 -3.984375 1.59375q-3.140625 0 -4.796875 -1.96875q-1.640625 -1.984375 -1.640625 -5.890625l0 -1.859375q0 -3.828125 1.640625 -5.8125q1.640625 -2.0 4.78125 -2.0q2.59375 0 4.109375 1.640625q1.53125 1.640625 1.625 4.484375l-2.609375 0q-0.09375 -1.875 -0.90625 -2.8125q-0.796875 -0.9375 -2.21875 -0.9375q-1.84375 0 -2.734375 1.21875q-0.890625 1.203125 -0.921875 3.96875l0 2.15625q0 2.984375 0.875 4.21875q0.890625 1.234375 2.796875 1.234375zm11.671875 -13.125q1.578125 -2.046875 4.03125 -2.046875q4.484375 0 4.546875 5.984375l0 11.234375l-2.75 0l0 -11.109375q0 -1.984375 -0.671875 -2.8125q-0.65625 -0.84375 -1.984375 -0.84375q-1.03125 0 -1.859375 0.6875q-0.8125 0.6875 -1.3125 1.796875l0 12.28125l-2.765625 0l0 -24.0l2.765625 0l0 8.828125zm18.734375 15.484375q-3.15625 0 -4.84375 -1.875q-1.6875 -1.890625 -1.71875 -5.53125l0 -2.046875q0 -3.78125 1.640625 -5.921875q1.65625 -2.15625 4.609375 -2.15625q2.96875 0 4.4375 1.890625q1.46875 1.890625 1.5 5.890625l0 1.8125l-9.4375 0l0 0.390625q0 2.71875 1.015625 3.953125q1.03125 1.234375 2.953125 1.234375q1.21875 0 2.140625 -0.453125q0.9375 -0.46875 1.75 -1.46875l1.4375 1.75q-1.796875 2.53125 -5.484375 2.53125zm-0.3125 -15.15625q-1.71875 0 -2.546875 1.1875q-0.828125 1.171875 -0.9375 3.65625l6.65625 0l0 -0.375q-0.109375 -2.40625 -0.875 -3.4375q-0.75 -1.03125 -2.296875 -1.03125zm15.125 12.796875q1.375 0 2.203125 -0.84375q0.828125 -0.859375 0.90625 -2.4375l2.609375 0q-0.09375 2.4375 -1.734375 4.046875q-1.625 1.59375 -3.984375 1.59375q-3.140625 0 -4.796875 -1.96875q-1.640625 -1.984375 -1.640625 -5.890625l0 -1.859375q0 -3.828125 1.640625 -5.8125q1.640625 -2.0 4.78125 -2.0q2.59375 0 4.109375 1.640625q1.53125 1.640625 1.625 4.484375l-2.609375 0q-0.09375 -1.875 -0.90625 -2.8125q-0.796875 -0.9375 -2.21875 -0.9375q-1.84375 0 -2.734375 1.21875q-0.890625 1.203125 -0.921875 3.96875l0 2.15625q0 2.984375 0.875 4.21875q0.890625 1.234375 2.796875 1.234375zm13.15625 -5.6875l-1.46875 1.6875l0 6.046875l-2.765625 0l0 -24.0l2.765625 0l0 14.359375l5.265625 -7.265625l3.3125 0l-5.375 7.0625l6.078125 9.84375l-3.21875 0l-4.59375 -7.734375zm9.59375 -1.5q0 -3.6875 1.78125 -5.828125q1.796875 -2.15625 4.734375 -2.15625q2.9375 0 4.71875 2.09375q1.796875 2.09375 1.84375 5.703125l0 1.78125q0 3.671875 -1.78125 5.8125q-1.78125 2.140625 -4.75 2.140625q-2.9375 0 -4.71875 -2.078125q-1.765625 -2.078125 -1.828125 -5.625l0 -1.84375zm2.765625 1.59375q0 2.609375 1.015625 4.109375q1.03125 1.484375 2.765625 1.484375q3.65625 0 3.765625 -5.28125l0 -1.90625q0 -2.59375 -1.03125 -4.09375q-1.03125 -1.515625 -2.765625 -1.515625q-1.703125 0 -2.734375 1.515625q-1.015625 1.5 -1.015625 4.078125l0 1.609375zm22.5 6.15625q-1.375 1.796875 -4.015625 1.796875q-2.296875 0 -3.46875 -1.578125q-1.171875 -1.59375 -1.1875 -4.625l0 -11.015625l2.75 0l0 10.8125q0 3.953125 2.375 3.953125q2.515625 0 3.46875 -2.25l0 -12.515625l2.765625 0l0 16.90625l-2.625 0l-0.0625 -1.484375zm10.46875 -19.515625l0 4.09375l2.546875 0l0 2.234375l-2.546875 0l0 10.484375q0 1.0 0.328125 1.515625q0.328125 0.515625 1.125 0.515625q0.546875 0 1.109375 -0.1875l-0.03125 2.34375q-0.9375 0.3125 -1.921875 0.3125q-1.640625 0 -2.5 -1.171875q-0.859375 -1.171875 -0.859375 -3.3125l0 -10.5l-2.578125 0l0 -2.234375l2.578125 0l0 -4.09375l2.75 0z" fill-rule="nonzero"></path><path fill="#f9cb9c" d="m421.83072 383.32285l241.48032 0l0 -24.677185l49.35431 49.35434l-49.35431 49.35434l0 -24.677185l-241.48032 0z" fill-rule="nonzero"></path><path stroke="#000000" stroke-width="2.0" stroke-linejoin="round" stroke-linecap="butt" d="m421.83072 383.32285l241.48032 0l0 -24.677185l49.35431 49.35434l-49.35431 49.35434l0 -24.677185l-241.48032 0z" fill-rule="nonzero"></path><path fill="#000000" fill-opacity="0.0" d="m105.05774 296.97113l184.75592 0l0 60.850403l-184.75592 0z" fill-rule="nonzero"></path><path fill="#000000" d="m115.573364 327.47238q0 -3.953125 1.4375 -5.96875q1.4375 -2.03125 4.203125 -2.03125q2.578125 0 3.921875 2.203125l0.140625 -1.890625l2.5 0l0 17.0625q0 3.140625 -1.609375 4.8125q-1.609375 1.6875 -4.484375 1.6875q-1.25 0 -2.8125 -0.625q-1.546875 -0.609375 -2.328125 -1.515625l1.125 -1.90625q1.71875 1.6875 3.796875 1.6875q3.453125 0 3.546875 -3.765625l0 -2.203125q-1.34375 1.984375 -3.8125 1.984375q-2.625 0 -4.09375 -1.96875q-1.46875 -1.984375 -1.53125 -5.6875l0 -1.875zm2.765625 1.578125q0 2.84375 0.828125 4.1875q0.84375 1.328125 2.75 1.328125q2.0625 0 3.09375 -2.109375l0 -8.453125q-1.078125 -2.078125 -3.0625 -2.078125q-1.90625 0 -2.75 1.34375q-0.84375 1.328125 -0.859375 4.09375l0 1.6875zm16.53125 7.640625l-2.765625 0l0 -16.90625l2.765625 0l0 16.90625zm0.21875 -21.390625q0 0.703125 -0.390625 1.171875q-0.390625 0.46875 -1.1875 0.46875q-0.78125 0 -1.171875 -0.46875q-0.390625 -0.46875 -0.390625 -1.171875q0 -0.703125 0.390625 -1.1875q0.390625 -0.484375 1.171875 -0.484375q0.78125 0 1.171875 0.5q0.40625 0.484375 0.40625 1.171875zm7.75 0.390625l0 4.09375l2.546875 0l0 2.234375l-2.546875 0l0 10.484375q0 1.0 0.328125 1.515625q0.328125 0.515625 1.125 0.515625q0.546875 0 1.109375 -0.1875l-0.03125 2.34375q-0.9375 0.3125 -1.921875 0.3125q-1.640625 0 -2.5 -1.171875q-0.859375 -1.171875 -0.859375 -3.3125l0 -10.5l-2.578125 0l0 -2.234375l2.578125 0l0 -4.09375l2.75 0zm21.859375 21.0q-0.25 -0.546875 -0.359375 -1.84375q-1.46875 2.15625 -3.75 2.15625q-2.296875 0 -3.59375 -1.28125q-1.28125 -1.296875 -1.28125 -3.640625q0 -2.578125 1.75 -4.09375q1.75 -1.515625 4.796875 -1.546875l2.03125 0l0 -1.796875q0 -1.515625 -0.671875 -2.15625q-0.671875 -0.640625 -2.046875 -0.640625q-1.25 0 -2.03125 0.75q-0.78125 0.734375 -0.78125 1.875l-2.765625 0q0 -1.296875 0.765625 -2.46875q0.765625 -1.1875 2.0625 -1.859375q1.296875 -0.671875 2.890625 -0.671875q2.59375 0 3.9375 1.296875q1.359375 1.28125 1.390625 3.75l0 8.53125q0.015625 1.953125 0.53125 3.390625l0 0.25l-2.875 0zm-3.6875 -2.203125q1.015625 0 1.9375 -0.5625q0.921875 -0.5625 1.34375 -1.40625l0 -4.03125l-1.5625 0q-1.96875 0.03125 -3.109375 0.890625q-1.140625 0.84375 -1.140625 2.375q0 1.4375 0.578125 2.09375q0.578125 0.640625 1.953125 0.640625zm9.734375 -7.015625q0 -3.90625 1.453125 -5.953125q1.46875 -2.046875 4.203125 -2.046875q2.421875 0 3.78125 1.96875l0 -8.75l2.765625 0l0 24.0l-2.53125 0l-0.140625 -1.8125q-1.359375 2.125 -3.890625 2.125q-2.625 0 -4.125 -2.03125q-1.484375 -2.046875 -1.515625 -5.765625l0 -1.734375zm2.765625 1.578125q0 2.84375 0.84375 4.1875q0.84375 1.328125 2.75 1.328125q2.0625 0 3.078125 -2.078125l0 -8.53125q-1.0625 -2.03125 -3.0625 -2.03125q-1.90625 0 -2.75 1.34375q-0.84375 1.328125 -0.859375 4.09375l0 1.6875zm13.109375 -1.578125q0 -3.90625 1.453125 -5.953125q1.46875 -2.046875 4.203125 -2.046875q2.421875 0 3.78125 1.96875l0 -8.75l2.765625 0l0 24.0l-2.53125 0l-0.140625 -1.8125q-1.359375 2.125 -3.890625 2.125q-2.625 0 -4.125 -2.03125q-1.484375 -2.046875 -1.515625 -5.765625l0 -1.734375zm2.765625 1.578125q0 2.84375 0.84375 4.1875q0.84375 1.328125 2.75 1.328125q2.0625 0 3.078125 -2.078125l0 -8.53125q-1.0625 -2.03125 -3.0625 -2.03125q-1.90625 0 -2.75 1.34375q-0.84375 1.328125 -0.859375 4.09375l0 1.6875z" fill-rule="nonzero"></path><path fill="#000000" fill-opacity="0.0" d="m421.83203 377.5748l184.75592 0l0 60.850403l-184.75592 0z" fill-rule="nonzero"></path><path fill="#000000" d="m432.34766 408.07605q0 -3.953125 1.4375 -5.96875q1.4375 -2.03125 4.203125 -2.03125q2.578125 0 3.921875 2.203125l0.140625 -1.890625l2.5 0l0 17.0625q0 3.140625 -1.609375 4.8125q-1.609375 1.6875 -4.484375 1.6875q-1.25 0 -2.8125 -0.625q-1.546875 -0.609375 -2.328125 -1.515625l1.125 -1.90625q1.71875 1.6875 3.796875 1.6875q3.453125 0 3.546875 -3.765625l0 -2.203125q-1.34375 1.984375 -3.8125 1.984375q-2.625 0 -4.09375 -1.96875q-1.46875 -1.984375 -1.53125 -5.6875l0 -1.875zm2.765625 1.578125q0 2.84375 0.828125 4.1875q0.84375 1.328125 2.75 1.328125q2.0625 0 3.09375 -2.109375l0 -8.453125q-1.078125 -2.078125 -3.0625 -2.078125q-1.90625 0 -2.75 1.34375q-0.84375 1.328125 -0.859375 4.09375l0 1.6875zm16.53125 7.640625l-2.765625 0l0 -16.90625l2.765625 0l0 16.90625zm0.21875 -21.390625q0 0.703125 -0.390625 1.171875q-0.390625 0.46875 -1.1875 0.46875q-0.78125 0 -1.171875 -0.46875q-0.390625 -0.46875 -0.390625 -1.171875q0 -0.703125 0.390625 -1.1875q0.390625 -0.484375 1.171875 -0.484375q0.78125 0 1.171875 0.5q0.40625 0.484375 0.40625 1.171875zm7.75 0.390625l0 4.09375l2.546875 0l0 2.234375l-2.546875 0l0 10.484375q0 1.0 0.328125 1.515625q0.328125 0.515625 1.125 0.515625q0.546875 0 1.109375 -0.1875l-0.03125 2.34375q-0.9375 0.3125 -1.921875 0.3125q-1.640625 0 -2.5 -1.171875q-0.859375 -1.171875 -0.859375 -3.3125l0 -10.5l-2.578125 0l0 -2.234375l2.578125 0l0 -4.09375l2.75 0zm19.03125 18.953125q1.375 0 2.203125 -0.84375q0.828125 -0.859375 0.90625 -2.4375l2.609375 0q-0.09375 2.4375 -1.734375 4.046875q-1.625 1.59375 -3.984375 1.59375q-3.140625 0 -4.796875 -1.96875q-1.640625 -1.984375 -1.640625 -5.890625l0 -1.859375q0 -3.828125 1.640625 -5.8125q1.640625 -2.0 4.78125 -2.0q2.59375 0 4.109375 1.640625q1.53125 1.640625 1.625 4.484375l-2.609375 0q-0.09375 -1.875 -0.90625 -2.8125q-0.796875 -0.9375 -2.21875 -0.9375q-1.84375 0 -2.734375 1.21875q-0.890625 1.203125 -0.921875 3.96875l0 2.15625q0 2.984375 0.875 4.21875q0.890625 1.234375 2.796875 1.234375zm8.328125 -7.1875q0 -3.6875 1.78125 -5.828125q1.796875 -2.15625 4.734375 -2.15625q2.9375 0 4.71875 2.09375q1.796875 2.09375 1.84375 5.703125l0 1.78125q0 3.671875 -1.78125 5.8125q-1.78125 2.140625 -4.75 2.140625q-2.9375 0 -4.71875 -2.078125q-1.765625 -2.078125 -1.828125 -5.625l0 -1.84375zm2.765625 1.59375q0 2.609375 1.015625 4.109375q1.03125 1.484375 2.765625 1.484375q3.65625 0 3.765625 -5.28125l0 -1.90625q0 -2.59375 -1.03125 -4.09375q-1.03125 -1.515625 -2.765625 -1.515625q-1.703125 0 -2.734375 1.515625q-1.015625 1.5 -1.015625 4.078125l0 1.609375zm16.484375 -9.265625l0.0625 1.5625q1.546875 -1.875 4.078125 -1.875q2.828125 0 3.953125 2.453125q1.59375 -2.453125 4.4375 -2.453125q4.671875 0 4.78125 5.828125l0 11.390625l-2.75 0l0 -11.125q0 -1.84375 -0.65625 -2.734375q-0.65625 -0.90625 -2.21875 -0.90625q-1.25 0 -2.03125 0.96875q-0.78125 0.96875 -0.90625 2.46875l0 11.328125l-2.78125 0l0 -11.25q-0.046875 -3.515625 -2.859375 -3.515625q-2.09375 0 -2.953125 2.09375l0 12.671875l-2.75 0l0 -16.90625l2.59375 0zm24.078125 0l0.0625 1.5625q1.546875 -1.875 4.078125 -1.875q2.828125 0 3.953125 2.453125q1.59375 -2.453125 4.4375 -2.453125q4.671875 0 4.78125 5.828125l0 11.390625l-2.75 0l0 -11.125q0 -1.84375 -0.65625 -2.734375q-0.65625 -0.90625 -2.21875 -0.90625q-1.25 0 -2.03125 0.96875q-0.78125 0.96875 -0.90625 2.46875l0 11.328125l-2.78125 0l0 -11.25q-0.046875 -3.515625 -2.859375 -3.515625q-2.09375 0 -2.953125 2.09375l0 12.671875l-2.75 0l0 -16.90625l2.59375 0zm24.453125 16.90625l-2.765625 0l0 -16.90625l2.765625 0l0 16.90625zm0.21875 -21.390625q0 0.703125 -0.390625 1.171875q-0.390625 0.46875 -1.1875 0.46875q-0.78125 0 -1.171875 -0.46875q-0.390625 -0.46875 -0.390625 -1.171875q0 -0.703125 0.390625 -1.1875q0.390625 -0.484375 1.171875 -0.484375q0.78125 0 1.171875 0.5q0.40625 0.484375 0.40625 1.171875zm7.75 0.390625l0 4.09375l2.546875 0l0 2.234375l-2.546875 0l0 10.484375q0 1.0 0.328125 1.515625q0.328125 0.515625 1.125 0.515625q0.546875 0 1.109375 -0.1875l-0.03125 2.34375q-0.9375 0.3125 -1.921875 0.3125q-1.640625 0 -2.5 -1.171875q-0.859375 -1.171875 -0.859375 -3.3125l0 -10.5l-2.578125 0l0 -2.234375l2.578125 0l0 -4.09375l2.75 0z" fill-rule="nonzero"></path></g></svg>

