<?xml version="1.0" standalone="yes"?>

<svg version="1.1" viewBox="0.0 0.0 784.0 316.0" fill="none" stroke="none" stroke-linecap="square" stroke-miterlimit="10" xmlns="http://www.w3.org/2000/svg" xmlns:xlink="http://www.w3.org/1999/xlink"><clipPath id="p.0"><path d="m0 0l784.0 0l0 316.0l-784.0 0l0 -316.0z" clip-rule="nonzero"></path></clipPath><g clip-path="url(#p.0)"><path fill="#000000" fill-opacity="0.0" d="m0 0l784.4304 0l0 316.3491l-784.4304 0z" fill-rule="nonzero"></path><path fill="#cfe2f3" d="m34.102364 135.898l0 0c0 -9.755783 7.908619 -17.664398 17.664394 -17.664398l70.65546 0l0 0c4.6848907 0 9.177895 1.8610611 12.490608 5.1737823c3.312729 3.3127136 5.1737823 7.805725 5.1737823 12.490616l0 134.97041c0 9.755768 -7.908615 17.664398 -17.66439 17.664398l-70.65546 0c-9.755775 0 -17.664394 -7.9086304 -17.664394 -17.664398z" fill-rule="nonzero"></path><path stroke="#000000" stroke-width="2.0" stroke-linejoin="round" stroke-linecap="butt" d="m34.102364 135.898l0 0c0 -9.755783 7.908619 -17.664398 17.664394 -17.664398l70.65546 0l0 0c4.6848907 0 9.177895 1.8610611 12.490608 5.1737823c3.312729 3.3127136 5.1737823 7.805725 5.1737823 12.490616l0 134.97041c0 9.755768 -7.908615 17.664398 -17.66439 17.664398l-70.65546 0c-9.755775 0 -17.664394 -7.9086304 -17.664394 -17.664398z" fill-rule="nonzero"></path><path fill="#cfe2f3" d="m185.64305 135.898l0 0c0 -9.755783 7.908615 -17.664398 17.664383 -17.664398l70.65546 0l0 0c4.684906 0 9.1779175 1.8610611 12.490631 5.1737823c3.3127136 3.3127136 5.173767 7.805725 5.173767 12.490616l0 134.97041c0 9.755768 -7.9086 17.664398 -17.664398 17.664398l-70.65546 0c-9.755768 0 -17.664383 -7.9086304 -17.664383 -17.664398z" fill-rule="nonzero"></path><path stroke="#000000" stroke-width="2.0" stroke-linejoin="round" stroke-linecap="butt" d="m185.64305 135.898l0 0c0 -9.755783 7.908615 -17.664398 17.664383 -17.664398l70.65546 0l0 0c4.684906 0 9.1779175 1.8610611 12.490631 5.1737823c3.3127136 3.3127136 5.173767 7.805725 5.173767 12.490616l0 134.97041c0 9.755768 -7.9086 17.664398 -17.664398 17.664398l-70.65546 0c-9.755768 0 -17.664383 -7.9086304 -17.664383 -17.664398z" fill-rule="nonzero"></path><path fill="#cfe2f3" d="m337.7979 135.898l0 0c0 -9.755783 7.9086 -17.664398 17.664398 -17.664398l70.65546 0l0 0c4.6848755 0 9.177887 1.8610611 12.490601 5.1737823c3.3127136 3.3127136 5.1737976 7.805725 5.1737976 12.490616l0 134.97041c0 9.755768 -7.9086304 17.664398 -17.664398 17.664398l-70.65546 0c-9.755798 0 -17.664398 -7.9086304 -17.664398 -17.664398z" fill-rule="nonzero"></path><path stroke="#000000" stroke-width="2.0" stroke-linejoin="round" stroke-linecap="butt" d="m337.7979 135.898l0 0c0 -9.755783 7.9086 -17.664398 17.664398 -17.664398l70.65546 0l0 0c4.6848755 0 9.177887 1.8610611 12.490601 5.1737823c3.3127136 3.3127136 5.1737976 7.805725 5.1737976 12.490616l0 134.97041c0 9.755768 -7.9086304 17.664398 -17.664398 17.664398l-70.65546 0c-9.755798 0 -17.664398 -7.9086304 -17.664398 -17.664398z" fill-rule="nonzero"></path><path fill="#cfe2f3" d="m489.95276 135.898l0 0c0 -9.755783 7.9086304 -17.664398 17.664398 -17.664398l70.655426 0l0 0c4.6849365 0 9.1779175 1.8610611 12.490662 5.1737823c3.312683 3.3127136 5.173767 7.805725 5.173767 12.490616l0 134.97041c0 9.755768 -7.9086304 17.664398 -17.664429 17.664398l-70.655426 0c-9.755768 0 -17.664398 -7.9086304 -17.664398 -17.664398z" fill-rule="nonzero"></path><path stroke="#000000" stroke-width="2.0" stroke-linejoin="round" stroke-linecap="butt" d="m489.95276 135.898l0 0c0 -9.755783 7.9086304 -17.664398 17.664398 -17.664398l70.655426 0l0 0c4.6849365 0 9.1779175 1.8610611 12.490662 5.1737823c3.312683 3.3127136 5.173767 7.805725 5.173767 12.490616l0 134.97041c0 9.755768 -7.9086304 17.664398 -17.664429 17.664398l-70.655426 0c-9.755768 0 -17.664398 -7.9086304 -17.664398 -17.664398z" fill-rule="nonzero"></path><path fill="#cfe2f3" d="m642.1076 135.898l0 0c0 -9.755783 7.9086304 -17.664398 17.664429 -17.664398l70.65546 0l0 0c4.6848755 0 9.177856 1.8610611 12.490601 5.1737823c3.312683 3.3127136 5.173767 7.805725 5.173767 12.490616l0 134.97041c0 9.755768 -7.9086304 17.664398 -17.664368 17.664398l-70.65546 0c-9.755798 0 -17.664429 -7.9086304 -17.664429 -17.664398z" fill-rule="nonzero"></path><path stroke="#000000" stroke-width="2.0" stroke-linejoin="round" stroke-linecap="butt" d="m642.1076 135.898l0 0c0 -9.755783 7.9086304 -17.664398 17.664429 -17.664398l70.65546 0l0 0c4.6848755 0 9.177856 1.8610611 12.490601 5.1737823c3.312683 3.3127136 5.173767 7.805725 5.173767 12.490616l0 134.97041c0 9.755768 -7.9086304 17.664398 -17.664368 17.664398l-70.65546 0c-9.755798 0 -17.664429 -7.9086304 -17.664429 -17.664398z" fill-rule="nonzero"></path><path fill="#000000" d="m33.13884 95.26228l3.203125 -12.703125l2.8125 0l-5.015625 16.90625l-2.0625 0l-5.078123 -16.90625l2.8125 0l3.328123 12.703125zm14.9375 4.515625q-3.15625 0 -4.84375 -1.875q-1.6875 -1.890625 -1.71875 -5.53125l0 -2.046875q0 -3.78125 1.640625 -5.921875q1.65625 -2.15625 4.609375 -2.15625q2.96875 0 4.4375 1.890625q1.46875 1.890625 1.5 5.890625l0 1.8125l-9.4375 0l0 0.390625q0 2.71875 1.015625 3.953125q1.03125 1.234375 2.953125 1.234375q1.21875 0 2.140625 -0.453125q0.9375 -0.46875 1.75 -1.46875l1.4375 1.75q-1.796875 2.53125 -5.484375 2.53125zm-0.3125 -15.15625q-1.71875 0 -2.546875 1.1875q-0.828125 1.171875 -0.9375 3.65625l6.65625 0l0 -0.375q-0.109375 -2.40625 -0.875 -3.4375q-0.75 -1.03125 -2.296875 -1.03125zm16.234375 0.53125q-0.578125 -0.109375 -1.25 -0.109375q-2.125 0 -2.96875 2.328125l0 12.09375l-2.765625 0l0 -16.90625l2.6875 0l0.046875 1.71875q1.109375 -2.03125 3.140625 -2.03125q0.65625 0 1.09375 0.21875l0.015625 2.6875zm10.96875 9.984375q0 -0.890625 -0.671875 -1.53125q-0.671875 -0.640625 -2.59375 -1.5q-2.234375 -0.921875 -3.15625 -1.578125q-0.90625 -0.65625 -1.359375 -1.484375q-0.453125 -0.84375 -0.453125 -2.0q0 -2.0625 1.5 -3.421875q1.515625 -1.375 3.859375 -1.375q2.46875 0 3.96875 1.4375q1.5 1.4375 1.5 3.6875l-2.75 0q0 -1.140625 -0.765625 -1.9375q-0.765625 -0.8125 -1.953125 -0.8125q-1.21875 0 -1.921875 0.640625q-0.6875 0.625 -0.6875 1.6875q0 0.84375 0.5 1.359375q0.515625 0.515625 2.453125 1.359375q3.078125 1.203125 4.1875 2.359375q1.109375 1.140625 1.109375 2.90625q0 2.203125 -1.515625 3.53125q-1.515625 1.3125 -4.0625 1.3125q-2.640625 0 -4.28125 -1.515625q-1.640625 -1.515625 -1.640625 -3.84375l2.78125 0q0.046875 1.40625 0.859375 2.203125q0.8125 0.796875 2.28125 0.796875q1.375 0 2.09375 -0.609375q0.71875 -0.625 0.71875 -1.671875zm9.34375 4.328125l-2.765625 0l0 -16.90625l2.765625 0l0 16.90625zm0.21875 -21.390625q0 0.703125 -0.390625 1.171875q-0.390625 0.46875 -1.1875 0.46875q-0.78125 0 -1.171875 -0.46875q-0.390625 -0.46875 -0.390625 -1.171875q0 -0.703125 0.390625 -1.1875q0.390625 -0.484375 1.171875 -0.484375q0.78125 0 1.171875 0.5q0.40625 0.484375 0.40625 1.171875zm3.546875 12.15625q0 -3.6875 1.78125 -5.828125q1.796875 -2.15625 4.734375 -2.15625q2.9375 0 4.71875 2.09375q1.796875 2.09375 1.84375 5.703125l0 1.78125q0 3.671875 -1.78125 5.8125q-1.78125 2.140625 -4.75 2.140625q-2.9375 0 -4.71875 -2.078125q-1.765625 -2.078125 -1.828125 -5.625l0 -1.84375zm2.765625 1.59375q0 2.609375 1.015625 4.109375q1.03125 1.484375 2.765625 1.484375q3.65625 0 3.765625 -5.28125l0 -1.90625q0 -2.59375 -1.03125 -4.09375q-1.03125 -1.515625 -2.765625 -1.515625q-1.703125 0 -2.734375 1.515625q-1.015625 1.5 -1.015625 4.078125l0 1.609375zm16.484375 -9.265625l0.078125 1.828125q1.609375 -2.140625 4.109375 -2.140625q4.484375 0 4.546875 5.984375l0 11.234375l-2.75 0l0 -11.109375q0 -1.984375 -0.671875 -2.8125q-0.65625 -0.84375 -1.984375 -0.84375q-1.03125 0 -1.859375 0.6875q-0.8125 0.6875 -1.3125 1.796875l0 12.28125l-2.765625 0l0 -16.90625l2.609375 0zm28.203125 16.90625l-2.78125 0l0 -19.265625l-4.78125 2.140625l0 -2.625l7.125 -3.109375l0.4375 0l0 22.859375z" fill-rule="nonzero"></path><path fill="#000000" d="m185.13884 95.26228l3.203125 -12.703125l2.8125 0l-5.015625 16.90625l-2.0625 0l-5.078125 -16.90625l2.8125 0l3.328125 12.703125zm14.9375 4.515625q-3.15625 0 -4.84375 -1.875q-1.6875 -1.890625 -1.71875 -5.53125l0 -2.046875q0 -3.78125 1.640625 -5.921875q1.65625 -2.15625 4.609375 -2.15625q2.96875 0 4.4375 1.890625q1.46875 1.890625 1.5 5.890625l0 1.8125l-9.4375 0l0 0.390625q0 2.71875 1.015625 3.953125q1.03125 1.234375 2.953125 1.234375q1.21875 0 2.140625 -0.453125q0.9375 -0.46875 1.75 -1.46875l1.4375 1.75q-1.796875 2.53125 -5.484375 2.53125zm-0.3125 -15.15625q-1.71875 0 -2.546875 1.1875q-0.828125 1.171875 -0.9375 3.65625l6.65625 0l0 -0.375q-0.109375 -2.40625 -0.875 -3.4375q-0.75 -1.03125 -2.296875 -1.03125zm16.234375 0.53125q-0.578125 -0.109375 -1.25 -0.109375q-2.125 0 -2.96875 2.328125l0 12.09375l-2.765625 0l0 -16.90625l2.6875 0l0.046875 1.71875q1.109375 -2.03125 3.140625 -2.03125q0.65625 0 1.09375 0.21875l0.015625 2.6875zm10.96875 9.984375q0 -0.890625 -0.671875 -1.53125q-0.671875 -0.640625 -2.59375 -1.5q-2.234375 -0.921875 -3.15625 -1.578125q-0.90625 -0.65625 -1.359375 -1.484375q-0.453125 -0.84375 -0.453125 -2.0q0 -2.0625 1.5 -3.421875q1.515625 -1.375 3.859375 -1.375q2.46875 0 3.96875 1.4375q1.5 1.4375 1.5 3.6875l-2.75 0q0 -1.140625 -0.765625 -1.9375q-0.765625 -0.8125 -1.953125 -0.8125q-1.21875 0 -1.921875 0.640625q-0.6875 0.625 -0.6875 1.6875q0 0.84375 0.5 1.359375q0.515625 0.515625 2.453125 1.359375q3.078125 1.203125 4.1875 2.359375q1.109375 1.140625 1.109375 2.90625q0 2.203125 -1.515625 3.53125q-1.515625 1.3125 -4.0625 1.3125q-2.640625 0 -4.28125 -1.515625q-1.640625 -1.515625 -1.640625 -3.84375l2.78125 0q0.046875 1.40625 0.859375 2.203125q0.8125 0.796875 2.28125 0.796875q1.375 0 2.09375 -0.609375q0.71875 -0.625 0.71875 -1.671875zm9.34375 4.328125l-2.765625 0l0 -16.90625l2.765625 0l0 16.90625zm0.21875 -21.390625q0 0.703125 -0.390625 1.171875q-0.390625 0.46875 -1.1875 0.46875q-0.78125 0 -1.171875 -0.46875q-0.390625 -0.46875 -0.390625 -1.171875q0 -0.703125 0.390625 -1.1875q0.390625 -0.484375 1.171875 -0.484375q0.78125 0 1.171875 0.5q0.40625 0.484375 0.40625 1.171875zm3.546875 12.15625q0 -3.6875 1.78125 -5.828125q1.796875 -2.15625 4.734375 -2.15625q2.9375 0 4.71875 2.09375q1.796875 2.09375 1.84375 5.703125l0 1.78125q0 3.671875 -1.78125 5.8125q-1.78125 2.140625 -4.75 2.140625q-2.9375 0 -4.71875 -2.078125q-1.765625 -2.078125 -1.828125 -5.625l0 -1.84375zm2.765625 1.59375q0 2.609375 1.015625 4.109375q1.03125 1.484375 2.765625 1.484375q3.65625 0 3.765625 -5.28125l0 -1.90625q0 -2.59375 -1.03125 -4.09375q-1.03125 -1.515625 -2.765625 -1.515625q-1.703125 0 -2.734375 1.515625q-1.015625 1.5 -1.015625 4.078125l0 1.609375zm16.48439 -9.265625l0.078125 1.828125q1.609375 -2.140625 4.109375 -2.140625q4.484375 0 4.546875 5.984375l0 11.234375l-2.75 0l0 -11.109375q0 -1.984375 -0.671875 -2.8125q-0.65625 -0.84375 -1.984375 -0.84375q-1.03125 0 -1.859375 0.6875q-0.8125 0.6875 -1.3125 1.796875l0 12.28125l-2.765625 0l0 -16.90625l2.609375 0zm32.6875 16.90625l-12.71875 0l0 -2.078125l6.484375 -8.59375q1.46875 -1.984375 2.03125 -3.25q0.578125 -1.28125 0.578125 -2.703125q0 -1.8125 -0.84375 -2.9375q-0.84375 -1.125 -2.21875 -1.125q-1.734375 0 -2.6875 1.203125q-0.9375 1.1875 -0.9375 3.4375l-2.765625 0q0 -3.140625 1.71875 -5.078125q1.71875 -1.9375 4.671875 -1.9375q2.71875 0 4.28125 1.671875q1.5625 1.65625 1.5625 4.421875q0 3.375 -3.515625 7.984375l-5.0625 6.625l9.421875 0l0 2.359375z" fill-rule="nonzero"></path><path fill="#000000" d="m337.13885 95.26228l3.203125 -12.703125l2.8125 0l-5.015625 16.90625l-2.0625 0l-5.078125 -16.90625l2.8125 0l3.328125 12.703125zm14.9375 4.515625q-3.15625 0 -4.84375 -1.875q-1.6875 -1.890625 -1.71875 -5.53125l0 -2.046875q0 -3.78125 1.640625 -5.921875q1.65625 -2.15625 4.609375 -2.15625q2.96875 0 4.4375 1.890625q1.46875 1.890625 1.5 5.890625l0 1.8125l-9.4375 0l0 0.390625q0 2.71875 1.015625 3.953125q1.03125 1.234375 2.953125 1.234375q1.21875 0 2.140625 -0.453125q0.9375 -0.46875 1.75 -1.46875l1.4375 1.75q-1.796875 2.53125 -5.484375 2.53125zm-0.3125 -15.15625q-1.71875 0 -2.546875 1.1875q-0.828125 1.171875 -0.9375 3.65625l6.65625 0l0 -0.375q-0.109375 -2.40625 -0.875 -3.4375q-0.75 -1.03125 -2.296875 -1.03125zm16.234375 0.53125q-0.578125 -0.109375 -1.25 -0.109375q-2.125 0 -2.96875 2.328125l0 12.09375l-2.765625 0l0 -16.90625l2.6875 0l0.046875 1.71875q1.109375 -2.03125 3.140625 -2.03125q0.65625 0 1.09375 0.21875l0.015625 2.6875zm10.96875 9.984375q0 -0.890625 -0.671875 -1.53125q-0.671875 -0.640625 -2.59375 -1.5q-2.234375 -0.921875 -3.15625 -1.578125q-0.90625 -0.65625 -1.359375 -1.484375q-0.453125 -0.84375 -0.453125 -2.0q0 -2.0625 1.5 -3.421875q1.515625 -1.375 3.859375 -1.375q2.46875 0 3.96875 1.4375q1.5 1.4375 1.5 3.6875l-2.75 0q0 -1.140625 -0.765625 -1.9375q-0.765625 -0.8125 -1.953125 -0.8125q-1.21875 0 -1.921875 0.640625q-0.6875 0.625 -0.6875 1.6875q0 0.84375 0.5 1.359375q0.515625 0.515625 2.453125 1.359375q3.078125 1.203125 4.1875 2.359375q1.109375 1.140625 1.109375 2.90625q0 2.203125 -1.515625 3.53125q-1.515625 1.3125 -4.0625 1.3125q-2.640625 0 -4.28125 -1.515625q-1.640625 -1.515625 -1.640625 -3.84375l2.78125 0q0.046875 1.40625 0.859375 2.203125q0.8125 0.796875 2.28125 0.796875q1.375 0 2.09375 -0.609375q0.71875 -0.625 0.71875 -1.671875zm9.34375 4.328125l-2.765625 0l0 -16.90625l2.765625 0l0 16.90625zm0.21875 -21.390625q0 0.703125 -0.390625 1.171875q-0.390625 0.46875 -1.1875 0.46875q-0.78125 0 -1.171875 -0.46875q-0.390625 -0.46875 -0.390625 -1.171875q0 -0.703125 0.390625 -1.1875q0.390625 -0.484375 1.171875 -0.484375q0.78125 0 1.171875 0.5q0.40625 0.484375 0.40625 1.171875zm3.546875 12.15625q0 -3.6875 1.78125 -5.828125q1.796875 -2.15625 4.734375 -2.15625q2.9375 0 4.71875 2.09375q1.796875 2.09375 1.84375 5.703125l0 1.78125q0 3.671875 -1.78125 5.8125q-1.78125 2.140625 -4.75 2.140625q-2.9375 0 -4.71875 -2.078125q-1.765625 -2.078125 -1.828125 -5.625l0 -1.84375zm2.765625 1.59375q0 2.609375 1.015625 4.109375q1.03125 1.484375 2.765625 1.484375q3.65625 0 3.765625 -5.28125l0 -1.90625q0 -2.59375 -1.03125 -4.09375q-1.03125 -1.515625 -2.765625 -1.515625q-1.703125 0 -2.734375 1.515625q-1.015625 1.5 -1.015625 4.078125l0 1.609375zm16.484375 -9.265625l0.078125 1.828125q1.609375 -2.140625 4.109375 -2.140625q4.484375 0 4.546875 5.984375l0 11.234375l-2.75 0l0 -11.109375q0 -1.984375 -0.671875 -2.8125q-0.65625 -0.84375 -1.984375 -0.84375q-1.03125 0 -1.859375 0.6875q-0.8125 0.6875 -1.3125 1.796875l0 12.28125l-2.765625 0l0 -16.90625l2.609375 0zm23.5 4.125l1.765625 0q1.703125 0 2.625 -1.046875q0.921875 -1.046875 0.921875 -2.859375q0 -4.0 -3.09375 -4.0q-1.484375 0 -2.328125 1.078125q-0.84375 1.078125 -0.84375 2.828125l-2.75 0q0 -2.734375 1.65625 -4.5q1.671875 -1.78125 4.265625 -1.78125q2.6875 0 4.265625 1.6875q1.578125 1.671875 1.578125 4.75q0 1.578125 -0.828125 2.953125q-0.8125 1.359375 -2.125 2.0q3.21875 1.1875 3.21875 5.328125q0 3.046875 -1.703125 4.859375q-1.6875 1.796875 -4.421875 1.796875q-2.703125 0 -4.375 -1.703125q-1.65625 -1.71875 -1.65625 -4.609375l2.765625 0q0 1.8125 0.875 2.890625q0.875 1.0625 2.390625 1.0625q1.546875 0 2.453125 -1.046875q0.921875 -1.046875 0.921875 -3.1875q0 -4.140625 -3.921875 -4.140625l-1.65625 0l0 -2.359375z" fill-rule="nonzero"></path><path fill="#000000" d="m489.13885 95.26228l3.203125 -12.703125l2.8125 0l-5.015625 16.90625l-2.0625 0l-5.078125 -16.90625l2.8125 0l3.328125 12.703125zm14.9375 4.515625q-3.15625 0 -4.84375 -1.875q-1.6875 -1.890625 -1.71875 -5.53125l0 -2.046875q0 -3.78125 1.640625 -5.921875q1.65625 -2.15625 4.609375 -2.15625q2.96875 0 4.4375 1.890625q1.46875 1.890625 1.5 5.890625l0 1.8125l-9.4375 0l0 0.390625q0 2.71875 1.015625 3.953125q1.03125 1.234375 2.953125 1.234375q1.21875 0 2.140625 -0.453125q0.9375 -0.46875 1.75 -1.46875l1.4375 1.75q-1.796875 2.53125 -5.484375 2.53125zm-0.3125 -15.15625q-1.71875 0 -2.546875 1.1875q-0.828125 1.171875 -0.9375 3.65625l6.65625 0l0 -0.375q-0.109375 -2.40625 -0.875 -3.4375q-0.75 -1.03125 -2.296875 -1.03125zm16.234375 0.53125q-0.578125 -0.109375 -1.25 -0.109375q-2.125 0 -2.96875 2.328125l0 12.09375l-2.765625 0l0 -16.90625l2.6875 0l0.046875 1.71875q1.109375 -2.03125 3.140625 -2.03125q0.65625 0 1.09375 0.21875l0.015625 2.6875zm10.96875 9.984375q0 -0.890625 -0.671875 -1.53125q-0.671875 -0.640625 -2.59375 -1.5q-2.234375 -0.921875 -3.15625 -1.578125q-0.90625 -0.65625 -1.359375 -1.484375q-0.453125 -0.84375 -0.453125 -2.0q0 -2.0625 1.5 -3.421875q1.515625 -1.375 3.859375 -1.375q2.46875 0 3.96875 1.4375q1.5 1.4375 1.5 3.6875l-2.75 0q0 -1.140625 -0.765625 -1.9375q-0.765625 -0.8125 -1.953125 -0.8125q-1.21875 0 -1.921875 0.640625q-0.6875 0.625 -0.6875 1.6875q0 0.84375 0.5 1.359375q0.515625 0.515625 2.453125 1.359375q3.078125 1.203125 4.1875 2.359375q1.109375 1.140625 1.109375 2.90625q0 2.203125 -1.515625 3.53125q-1.515625 1.3125 -4.0625 1.3125q-2.640625 0 -4.28125 -1.515625q-1.640625 -1.515625 -1.640625 -3.84375l2.78125 0q0.046875 1.40625 0.859375 2.203125q0.8125 0.796875 2.28125 0.796875q1.375 0 2.09375 -0.609375q0.71875 -0.625 0.71875 -1.671875zm9.34375 4.328125l-2.765625 0l0 -16.90625l2.765625 0l0 16.90625zm0.21875 -21.390625q0 0.703125 -0.390625 1.171875q-0.390625 0.46875 -1.1875 0.46875q-0.78125 0 -1.171875 -0.46875q-0.390625 -0.46875 -0.390625 -1.171875q0 -0.703125 0.390625 -1.1875q0.390625 -0.484375 1.171875 -0.484375q0.78125 0 1.171875 0.5q0.40625 0.484375 0.40625 1.171875zm3.546875 12.15625q0 -3.6875 1.78125 -5.828125q1.796875 -2.15625 4.734375 -2.15625q2.9375 0 4.71875 2.09375q1.796875 2.09375 1.84375 5.703125l0 1.78125q0 3.671875 -1.78125 5.8125q-1.78125 2.140625 -4.75 2.140625q-2.9375 0 -4.71875 -2.078125q-1.765625 -2.078125 -1.828125 -5.625l0 -1.84375zm2.765625 1.59375q0 2.609375 1.015625 4.109375q1.03125 1.484375 2.765625 1.484375q3.65625 0 3.765625 -5.28125l0 -1.90625q0 -2.59375 -1.03125 -4.09375q-1.03125 -1.515625 -2.765625 -1.515625q-1.703125 0 -2.734375 1.515625q-1.015625 1.5 -1.015625 4.078125l0 1.609375zm16.484375 -9.265625l0.078125 1.828125q1.609375 -2.140625 4.109375 -2.140625q4.484375 0 4.546875 5.984375l0 11.234375l-2.75 0l0 -11.109375q0 -1.984375 -0.671875 -2.8125q-0.65625 -0.84375 -1.984375 -0.84375q-1.03125 0 -1.859375 0.6875q-0.8125 0.6875 -1.3125 1.796875l0 12.28125l-2.765625 0l0 -16.90625l2.609375 0zm30.4375 9.265625l2.53125 0l0 2.359375l-2.53125 0l0 5.28125l-2.765625 0l0 -5.28125l-8.59375 0l0 -1.703125l8.453125 -15.765625l2.90625 0l0 15.109375zm-8.296875 0l5.53125 0l0 -10.8125l-5.53125 10.8125z" fill-rule="nonzero"></path><path fill="#000000" d="m641.13885 95.26228l3.203125 -12.703125l2.8125 0l-5.015625 16.90625l-2.0625 0l-5.078125 -16.90625l2.8125 0l3.328125 12.703125zm14.9375 4.515625q-3.15625 0 -4.84375 -1.875q-1.6875 -1.890625 -1.71875 -5.53125l0 -2.046875q0 -3.78125 1.640625 -5.921875q1.65625 -2.15625 4.609375 -2.15625q2.96875 0 4.4375 1.890625q1.46875 1.890625 1.5 5.890625l0 1.8125l-9.4375 0l0 0.390625q0 2.71875 1.015625 3.953125q1.03125 1.234375 2.953125 1.234375q1.21875 0 2.140625 -0.453125q0.9375 -0.46875 1.75 -1.46875l1.4375 1.75q-1.796875 2.53125 -5.484375 2.53125zm-0.3125 -15.15625q-1.71875 0 -2.546875 1.1875q-0.828125 1.171875 -0.9375 3.65625l6.65625 0l0 -0.375q-0.109375 -2.40625 -0.875 -3.4375q-0.75 -1.03125 -2.296875 -1.03125zm16.234375 0.53125q-0.578125 -0.109375 -1.25 -0.109375q-2.125 0 -2.96875 2.328125l0 12.09375l-2.765625 0l0 -16.90625l2.6875 0l0.046875 1.71875q1.109375 -2.03125 3.140625 -2.03125q0.65625 0 1.09375 0.21875l0.015625 2.6875zm10.96875 9.984375q0 -0.890625 -0.671875 -1.53125q-0.671875 -0.640625 -2.59375 -1.5q-2.234375 -0.921875 -3.15625 -1.578125q-0.90625 -0.65625 -1.359375 -1.484375q-0.453125 -0.84375 -0.453125 -2.0q0 -2.0625 1.5 -3.421875q1.515625 -1.375 3.859375 -1.375q2.46875 0 3.96875 1.4375q1.5 1.4375 1.5 3.6875l-2.75 0q0 -1.140625 -0.765625 -1.9375q-0.765625 -0.8125 -1.953125 -0.8125q-1.21875 0 -1.921875 0.640625q-0.6875 0.625 -0.6875 1.6875q0 0.84375 0.5 1.359375q0.515625 0.515625 2.453125 1.359375q3.078125 1.203125 4.1875 2.359375q1.109375 1.140625 1.109375 2.90625q0 2.203125 -1.515625 3.53125q-1.515625 1.3125 -4.0625 1.3125q-2.640625 0 -4.28125 -1.515625q-1.640625 -1.515625 -1.640625 -3.84375l2.78125 0q0.046875 1.40625 0.859375 2.203125q0.8125 0.796875 2.28125 0.796875q1.375 0 2.09375 -0.609375q0.71875 -0.625 0.71875 -1.671875zm9.34375 4.328125l-2.765625 0l0 -16.90625l2.765625 0l0 16.90625zm0.21875 -21.390625q0 0.703125 -0.390625 1.171875q-0.390625 0.46875 -1.1875 0.46875q-0.78125 0 -1.171875 -0.46875q-0.390625 -0.46875 -0.390625 -1.171875q0 -0.703125 0.390625 -1.1875q0.390625 -0.484375 1.171875 -0.484375q0.78125 0 1.171875 0.5q0.40625 0.484375 0.40625 1.171875zm3.546875 12.15625q0 -3.6875 1.78125 -5.828125q1.796875 -2.15625 4.734375 -2.15625q2.9375 0 4.71875 2.09375q1.796875 2.09375 1.84375 5.703125l0 1.78125q0 3.671875 -1.78125 5.8125q-1.78125 2.140625 -4.75 2.140625q-2.9375 0 -4.71875 -2.078125q-1.765625 -2.078125 -1.828125 -5.625l0 -1.84375zm2.765625 1.59375q0 2.609375 1.015625 4.109375q1.03125 1.484375 2.765625 1.484375q3.65625 0 3.765625 -5.28125l0 -1.90625q0 -2.59375 -1.03125 -4.09375q-1.03125 -1.515625 -2.765625 -1.515625q-1.703125 0 -2.734375 1.515625q-1.015625 1.5 -1.015625 4.078125l0 1.609375zm16.484375 -9.265625l0.078125 1.828125q1.609375 -2.140625 4.109375 -2.140625q4.484375 0 4.546875 5.984375l0 11.234375l-2.75 0l0 -11.109375q0 -1.984375 -0.671875 -2.8125q-0.65625 -0.84375 -1.984375 -0.84375q-1.03125 0 -1.859375 0.6875q-0.8125 0.6875 -1.3125 1.796875l0 12.28125l-2.765625 0l0 -16.90625l2.609375 0zm21.09375 5.5l0.984375 -11.34375l9.890625 0l0 2.671875l-7.5625 0l-0.53125 6.203125q1.40625 -0.984375 3.03125 -0.984375q2.65625 0 4.171875 2.0625q1.515625 2.0625 1.515625 5.546875q0 3.53125 -1.65625 5.546875q-1.640625 2.015625 -4.515625 2.015625q-2.5625 0 -4.171875 -1.671875q-1.609375 -1.671875 -1.84375 -4.625l2.59375 0q0.234375 1.953125 1.109375 2.953125q0.890625 0.984375 2.3125 0.984375q1.609375 0 2.515625 -1.390625q0.90625 -1.40625 0.90625 -3.78125q0 -2.234375 -0.984375 -3.640625q-0.96875 -1.40625 -2.625 -1.40625q-1.375 0 -2.203125 0.71875l-0.734375 0.734375l-2.203125 -0.59375z" fill-rule="nonzero"></path><path fill="#000000" d="m54.287277 156.66226l0 -14.671875l-2.203125 0l0 -2.234375l2.203125 0l0 -1.953125q0.046875 -2.578125 1.296875 -4.015625q1.265625 -1.453125 3.5625 -1.453125q0.828125 0 1.671875 0.265625l-0.140625 2.34375q-0.59375 -0.140625 -1.265625 -0.140625q-2.359375 0 -2.359375 3.359375l0 1.59375l2.890625 0l0 2.234375l-2.890625 0l0 14.671875l-2.765625 0zm11.890625 0l-2.765625 0l0 -16.90625l2.765625 0l0 16.90625zm0.21875 -21.390625q0 0.703125 -0.390625 1.171875q-0.390625 0.46875 -1.1875 0.46875q-0.78125 0 -1.171875 -0.46875q-0.390625 -0.46875 -0.390625 -1.171875q0 -0.703125 0.390625 -1.1875q0.390625 -0.484375 1.171875 -0.484375q0.78125 0 1.171875 0.5q0.40625 0.484375 0.40625 1.171875zm7.109375 21.390625l-2.765625 0l0 -24.0l2.765625 0l0 24.0zm10.390625 0.3125q-3.15625 0 -4.84375 -1.875q-1.6875 -1.890625 -1.71875 -5.53125l0 -2.046875q0 -3.78125 1.640625 -5.921875q1.65625 -2.15625 4.609375 -2.15625q2.96875 0 4.4375 1.890625q1.46875 1.890625 1.5 5.890625l0 1.8125l-9.4375 0l0 0.390625q0 2.71875 1.015625 3.953125q1.03125 1.234375 2.953125 1.234375q1.21875 0 2.140625 -0.453125q0.9375 -0.46875 1.75 -1.46875l1.4375 1.75q-1.796875 2.53125 -5.484375 2.53125zm-0.3125 -15.15625q-1.71875 0 -2.546875 1.1875q-0.828125 1.171875 -0.9375 3.65625l6.65625 0l0 -0.375q-0.109375 -2.40625 -0.875 -3.4375q-0.75 -1.03125 -2.296875 -1.03125zm27.578125 8.90625l-7.6875 0l-1.765625 5.9375l-2.9375 0l7.328125 -22.75l2.453125 0l7.34375 22.75l-2.9375 0l-1.796875 -5.9375zm-6.9375 -2.46875l6.203125 0l-3.109375 -10.34375l-3.09375 10.34375z" fill-rule="nonzero"></path><path fill="#000000" d="m231.71696 150.72476l-7.6875 0l-1.765625 5.9375l-2.9375 0l7.328125 -22.75l2.453125 0l7.34375 22.75l-2.9375 0l-1.796875 -5.9375zm-6.9375 -2.46875l6.203125 0l-3.109375 -10.34375l-3.09375 10.34375zm22.375 8.40625l-2.78125 0l0 -19.265625l-4.78125 2.140625l0 -2.625l7.125 -3.109375l0.4375 0l0 22.859375z" fill-rule="nonzero"></path><path fill="#3d85c6" d="m362.55292 147.42789q0 -4.09375 1.109375 -7.703125q1.109375 -3.609375 3.140625 -6.328125q1.234375 -1.640625 2.375 -2.40625l0.546875 1.90625q-1.875 1.796875 -3.078125 5.421875q-1.203125 3.609375 -1.3125 8.03125l-0.015625 1.265625q0 5.5 1.546875 9.71875q1.171875 3.171875 2.859375 4.90625l-0.546875 1.765625q-1.4375 -0.96875 -2.921875 -3.1875q-3.703125 -5.578125 -3.703125 -13.390625zm21.09375 3.296875l-7.6875 0l-1.765625 5.9375l-2.9375 0l7.328125 -22.75l2.453125 0l7.34375 22.75l-2.9375 0l-1.796875 -5.9375zm-6.9375 -2.46875l6.203125 0l-3.109375 -10.34375l-3.09375 10.34375zm22.375 8.40625l-2.78125 0l0 -19.265625l-4.78125 2.140625l0 -2.625l7.125 -3.109375l0.4375 0l0 22.859375zm13.75 -9.078125q0 6.96875 -3.125 12.328125q-1.6875 2.875 -3.5 4.09375l-0.546875 -1.765625q1.96875 -1.890625 3.171875 -5.765625q1.203125 -3.890625 1.234375 -8.515625l0 -0.5625q0 -5.9375 -1.953125 -10.625q-1.078125 -2.5625 -2.453125 -4.015625l0.546875 -1.765625q1.71875 1.15625 3.328125 3.796875q3.296875 5.4375 3.296875 12.796875z" fill-rule="nonzero"></path><path fill="#000000" d="m535.717 150.72476l-7.6875 0l-1.765625 5.9375l-2.9375 0l7.328125 -22.75l2.453125 0l7.34375 22.75l-2.9375 0l-1.796875 -5.9375zm-6.9375 -2.46875l6.203125 0l-3.109375 -10.34375l-3.09375 10.34375zm26.859375 8.40625l-12.71875 0l0 -2.078125l6.484375 -8.59375q1.46875 -1.984375 2.03125 -3.25q0.578125 -1.28125 0.578125 -2.703125q0 -1.8125 -0.84375 -2.9375q-0.84375 -1.125 -2.21875 -1.125q-1.734375 0 -2.6875 1.203125q-0.9375 1.1875 -0.9375 3.4375l-2.765625 0q0 -3.140625 1.71875 -5.078125q1.71875 -1.9375 4.671875 -1.9375q2.71875 0 4.28125 1.671875q1.5625 1.65625 1.5625 4.421875q0 3.375 -3.515625 7.984375l-5.0625 6.625l9.421875 0l0 2.359375z" fill-rule="nonzero"></path><path fill="#3d85c6" d="m666.5529 147.42789q0 -4.09375 1.109375 -7.703125q1.109375 -3.609375 3.140625 -6.328125q1.234375 -1.640625 2.375 -2.40625l0.546875 1.90625q-1.875 1.796875 -3.078125 5.421875q-1.203125 3.609375 -1.3125 8.03125l-0.015625 1.265625q0 5.5 1.546875 9.71875q1.171875 3.171875 2.859375 4.90625l-0.546875 1.765625q-1.4375 -0.96875 -2.921875 -3.1875q-3.703125 -5.578125 -3.703125 -13.390625zm21.09375 3.296875l-7.6875 0l-1.765625 5.9375l-2.9375 0l7.328125 -22.75l2.453125 0l7.34375 22.75l-2.9375 0l-1.796875 -5.9375zm-6.9375 -2.46875l6.203125 0l-3.109375 -10.34375l-3.09375 10.34375zm26.859375 8.40625l-12.71875 0l0 -2.078125l6.484375 -8.59375q1.46875 -1.984375 2.03125 -3.25q0.578125 -1.28125 0.578125 -2.703125q0 -1.8125 -0.84375 -2.9375q-0.84375 -1.125 -2.21875 -1.125q-1.734375 0 -2.6875 1.203125q-0.9375 1.1875 -0.9375 3.4375l-2.765625 0q0 -3.140625 1.71875 -5.078125q1.71875 -1.9375 4.671875 -1.9375q2.71875 0 4.28125 1.671875q1.5625 1.65625 1.5625 4.421875q0 3.375 -3.515625 7.984375l-5.0625 6.625l9.421875 0l0 2.359375zm9.265625 -9.078125q0 6.96875 -3.125 12.328125q-1.6875 2.875 -3.5 4.09375l-0.546875 -1.765625q1.96875 -1.890625 3.171875 -5.765625q1.203125 -3.890625 1.234375 -8.515625l0 -0.5625q0 -5.9375 -1.953125 -10.625q-1.078125 -2.5625 -2.453125 -4.015625l0.546875 -1.765625q1.71875 1.15625 3.328125 3.796875q3.296875 5.4375 3.296875 12.796875z" fill-rule="nonzero"></path><path fill="#000000" d="m54.779465 213.85912l0 -14.671875l-2.203125 0l0 -2.234375l2.203125 0l0 -1.953125q0.046875 -2.578125 1.296875 -4.015625q1.265625 -1.453125 3.5625 -1.453125q0.828125 0 1.671875 0.265625l-0.140625 2.34375q-0.59375 -0.140625 -1.265625 -0.140625q-2.359375 0 -2.359375 3.359375l0 1.59375l2.890625 0l0 2.234375l-2.890625 0l0 14.671875l-2.765625 0zm11.890625 0l-2.765625 0l0 -16.90625l2.765625 0l0 16.90625zm0.21875 -21.390625q0 0.703125 -0.390625 1.171875q-0.390625 0.46875 -1.1875 0.46875q-0.78125 0 -1.171875 -0.46875q-0.390625 -0.46875 -0.390625 -1.171875q0 -0.703125 0.390625 -1.1875q0.390625 -0.484375 1.171875 -0.484375q0.78125 0 1.171875 0.5q0.40625 0.484375 0.40625 1.171875zm7.109375 21.390625l-2.765625 0l0 -24.0l2.765625 0l0 24.0zm10.390625 0.3125q-3.15625 0 -4.84375 -1.875q-1.6875 -1.890625 -1.71875 -5.53125l0 -2.046875q0 -3.78125 1.640625 -5.921875q1.65625 -2.15625 4.609375 -2.15625q2.96875 0 4.4375 1.890625q1.46875 1.890625 1.5 5.890625l0 1.8125l-9.4375 0l0 0.390625q0 2.71875 1.015625 3.953125q1.03125 1.234375 2.953125 1.234375q1.21875 0 2.140625 -0.453125q0.9375 -0.46875 1.75 -1.46875l1.4375 1.75q-1.796875 2.53125 -5.484375 2.53125zm-0.3125 -15.15625q-1.71875 0 -2.546875 1.1875q-0.828125 1.171875 -0.9375 3.65625l6.65625 0l0 -0.375q-0.109375 -2.40625 -0.875 -3.4375q-0.75 -1.03125 -2.296875 -1.03125zm16.96875 14.84375l0 -22.75l6.484375 0q3.109375 0 4.671875 1.515625q1.578125 1.515625 1.578125 4.546875q0 1.59375 -0.796875 2.8125q-0.796875 1.21875 -2.15625 1.890625q1.5625 0.46875 2.46875 1.921875q0.921875 1.453125 0.921875 3.5q0 3.0625 -1.6875 4.8125q-1.671875 1.75 -4.78125 1.75l-6.703125 0zm2.859375 -10.640625l0 8.1875l3.90625 0q1.625 0 2.578125 -1.0625q0.953125 -1.078125 0.953125 -3.015625q0 -4.109375 -3.46875 -4.109375l-3.96875 0zm0 -2.40625l3.671875 0q1.484375 0 2.390625 -1.0q0.921875 -1.0 0.921875 -2.65625q0 -1.875 -0.828125 -2.71875q-0.828125 -0.859375 -2.53125 -0.859375l-3.625 0l0 7.234375z" fill-rule="nonzero"></path><path fill="#3d85c6" d="m218.94353 204.62474q0 -4.09375 1.109375 -7.703125q1.109375 -3.609375 3.140625 -6.328125q1.234375 -1.640625 2.375 -2.40625l0.546875 1.90625q-1.875 1.796875 -3.078125 5.421875q-1.203125 3.609375 -1.3125 8.03125l-0.015625 1.265625q0 5.5 1.546875 9.71875q1.171875 3.171875 2.859375 4.90625l-0.546875 1.765625q-1.4375 -0.96875 -2.921875 -3.1875q-3.703125 -5.578125 -3.703125 -13.390625zm10.484375 9.234375l0 -22.75l6.484375 0q3.109375 0 4.671875 1.515625q1.578125 1.515625 1.578125 4.546875q0 1.59375 -0.796875 2.8125q-0.796875 1.21875 -2.15625 1.890625q1.5625 0.46875 2.46875 1.921875q0.921875 1.453125 0.921875 3.5q0 3.0625 -1.6875 4.8125q-1.671875 1.75 -4.78125 1.75l-6.703125 0zm2.859375 -10.640625l0 8.1875l3.90625 0q1.625 0 2.578125 -1.0625q0.953125 -1.078125 0.953125 -3.015625q0 -4.109375 -3.46875 -4.109375l-3.96875 0zm0 -2.40625l3.671875 0q1.484375 0 2.390625 -1.0q0.921875 -1.0 0.921875 -2.65625q0 -1.875 -0.828125 -2.71875q-0.828125 -0.859375 -2.53125 -0.859375l-3.625 0l0 7.234375zm20.15625 3.96875q0 6.96875 -3.125 12.328125q-1.6875 2.875 -3.5 4.09375l-0.546875 -1.765625q1.96875 -1.890625 3.171875 -5.765625q1.203125 -3.890625 1.234375 -8.515625l0 -0.5625q0 -5.9375 -1.953125 -10.625q-1.078125 -2.5625 -2.453125 -4.015625l0.546875 -1.765625q1.71875 1.15625 3.328125 3.796875q3.296875 5.4375 3.296875 12.796875z" fill-rule="nonzero"></path><path fill="#3d85c6" d="m370.94354 204.62474q0 -4.09375 1.109375 -7.703125q1.109375 -3.609375 3.140625 -6.328125q1.234375 -1.640625 2.375 -2.40625l0.546875 1.90625q-1.875 1.796875 -3.078125 5.421875q-1.203125 3.609375 -1.3125 8.03125l-0.015625 1.265625q0 5.5 1.546875 9.71875q1.171875 3.171875 2.859375 4.90625l-0.546875 1.765625q-1.4375 -0.96875 -2.921875 -3.1875q-3.703125 -5.578125 -3.703125 -13.390625zm10.484375 9.234375l0 -22.75l6.484375 0q3.109375 0 4.671875 1.515625q1.578125 1.515625 1.578125 4.546875q0 1.59375 -0.796875 2.8125q-0.796875 1.21875 -2.15625 1.890625q1.5625 0.46875 2.46875 1.921875q0.921875 1.453125 0.921875 3.5q0 3.0625 -1.6875 4.8125q-1.671875 1.75 -4.78125 1.75l-6.703125 0zm2.859375 -10.640625l0 8.1875l3.90625 0q1.625 0 2.578125 -1.0625q0.953125 -1.078125 0.953125 -3.015625q0 -4.109375 -3.46875 -4.109375l-3.96875 0zm0 -2.40625l3.671875 0q1.484375 0 2.390625 -1.0q0.921875 -1.0 0.921875 -2.65625q0 -1.875 -0.828125 -2.71875q-0.828125 -0.859375 -2.53125 -0.859375l-3.625 0l0 7.234375zm20.15625 3.96875q0 6.96875 -3.125 12.328125q-1.6875 2.875 -3.5 4.09375l-0.546875 -1.765625q1.96875 -1.890625 3.171875 -5.765625q1.203125 -3.890625 1.234375 -8.515625l0 -0.5625q0 -5.9375 -1.953125 -10.625q-1.078125 -2.5625 -2.453125 -4.015625l0.546875 -1.765625q1.71875 1.15625 3.328125 3.796875q3.296875 5.4375 3.296875 12.796875z" fill-rule="nonzero"></path><path fill="#000000" d="m525.5998 213.85912l0 -22.75l6.484375 0q3.109375 0 4.671875 1.515625q1.578125 1.515625 1.578125 4.546875q0 1.59375 -0.796875 2.8125q-0.796875 1.21875 -2.15625 1.890625q1.5625 0.46875 2.46875 1.921875q0.921875 1.453125 0.921875 3.5q0 3.0625 -1.6875 4.8125q-1.671875 1.75 -4.78125 1.75l-6.703125 0zm2.859375 -10.640625l0 8.1875l3.90625 0q1.625 0 2.578125 -1.0625q0.953125 -1.078125 0.953125 -3.015625q0 -4.109375 -3.46875 -4.109375l-3.96875 0zm0 -2.40625l3.671875 0q1.484375 0 2.390625 -1.0q0.921875 -1.0 0.921875 -2.65625q0 -1.875 -0.828125 -2.71875q-0.828125 -0.859375 -2.53125 -0.859375l-3.625 0l0 7.234375zm22.203125 13.046875l-2.78125 0l0 -19.265625l-4.78125 2.140625l0 -2.625l7.125 -3.109375l0.4375 0l0 22.859375z" fill-rule="nonzero"></path><path fill="#000000" d="m677.5998 213.85912l0 -22.75l6.484375 0q3.109375 0 4.671875 1.515625q1.578125 1.515625 1.578125 4.546875q0 1.59375 -0.796875 2.8125q-0.796875 1.21875 -2.15625 1.890625q1.5625 0.46875 2.46875 1.921875q0.921875 1.453125 0.921875 3.5q0 3.0625 -1.6875 4.8125q-1.671875 1.75 -4.78125 1.75l-6.703125 0zm2.859375 -10.640625l0 8.1875l3.90625 0q1.625 0 2.578125 -1.0625q0.953125 -1.078125 0.953125 -3.015625q0 -4.109375 -3.46875 -4.109375l-3.96875 0zm0 -2.40625l3.671875 0q1.484375 0 2.390625 -1.0q0.921875 -1.0 0.921875 -2.65625q0 -1.875 -0.828125 -2.71875q-0.828125 -0.859375 -2.53125 -0.859375l-3.625 0l0 7.234375zm26.6875 13.046875l-12.71875 0l0 -2.078125l6.484375 -8.59375q1.46875 -1.984375 2.03125 -3.25q0.578125 -1.28125 0.578125 -2.703125q0 -1.8125 -0.84375 -2.9375q-0.84375 -1.125 -2.21875 -1.125q-1.734375 0 -2.6875 1.203125q-0.9375 1.1875 -0.9375 3.4375l-2.765625 0q0 -3.140625 1.71875 -5.078125q1.71875 -1.9375 4.671875 -1.9375q2.71875 0 4.28125 1.671875q1.5625 1.65625 1.5625 4.421875q0 3.375 -3.515625 7.984375l-5.0625 6.625l9.421875 0l0 2.359375z" fill-rule="nonzero"></path><path fill="#000000" d="m54.435715 271.05597l0 -14.671875l-2.203125 0l0 -2.2343903l2.203125 0l0 -1.953125q0.046875 -2.578125 1.296875 -4.015625q1.265625 -1.453125 3.5625 -1.453125q0.828125 0 1.671875 0.265625l-0.140625 2.34375q-0.59375 -0.140625 -1.265625 -0.140625q-2.359375 0 -2.359375 3.359375l0 1.59375l2.890625 0l0 2.2343903l-2.890625 0l0 14.671875l-2.765625 0zm11.890625 0l-2.765625 0l0 -16.906265l2.765625 0l0 16.906265zm0.21875 -21.39064q0 0.703125 -0.390625 1.171875q-0.390625 0.46875 -1.1875 0.46875q-0.78125 0 -1.171875 -0.46875q-0.390625 -0.46875 -0.390625 -1.171875q0 -0.703125 0.390625 -1.1875q0.390625 -0.484375 1.171875 -0.484375q0.78125 0 1.171875 0.5q0.40625 0.484375 0.40625 1.171875zm7.109375 21.39064l-2.765625 0l0 -24.000015l2.765625 0l0 24.000015zm10.390625 0.3125q-3.15625 0 -4.84375 -1.875q-1.6875 -1.890625 -1.71875 -5.53125l0 -2.046875q0 -3.78125 1.640625 -5.9218903q1.65625 -2.15625 4.609375 -2.15625q2.96875 0 4.4375 1.890625q1.46875 1.8906403 1.5 5.8906403l0 1.8125l-9.4375 0l0 0.390625q0 2.71875 1.015625 3.953125q1.03125 1.234375 2.953125 1.234375q1.21875 0 2.140625 -0.453125q0.9375 -0.46875 1.75 -1.46875l1.4375 1.75q-1.796875 2.53125 -5.484375 2.53125zm-0.3125 -15.15625q-1.71875 0 -2.546875 1.1875q-0.828125 1.171875 -0.9375 3.65625l6.65625 0l0 -0.375q-0.109375 -2.40625 -0.875 -3.4375q-0.75 -1.03125 -2.296875 -1.03125zm31.234375 7.625q-0.1875 3.65625 -2.0625 5.59375q-1.859375 1.9375 -5.265625 1.9375q-3.421875 0 -5.4375 -2.59375q-2.015625 -2.609375 -2.015625 -7.0625l0 -4.125q0 -4.4375153 2.0625 -7.0156403q2.078125 -2.578125 5.65625 -2.578125q3.296875 0 5.09375 1.984375q1.8125 1.96875 1.96875 5.640625l-2.890625 0q-0.1875 -2.78125 -1.171875 -3.96875q-0.984375 -1.1875 -3.0 -1.1875q-2.328125 0 -3.578125 1.828125q-1.25 1.8125 -1.25 5.3281403l0 4.171875q0 3.453125 1.15625 5.296875q1.171875 1.84375 3.40625 1.84375q2.234375 0 3.21875 -1.109375q0.984375 -1.109375 1.21875 -3.984375l2.890625 0z" fill-rule="nonzero"></path><path fill="#000000" d="m235.52165 263.83722q-0.1875 3.65625 -2.0625 5.59375q-1.859375 1.9375 -5.265625 1.9375q-3.421875 0 -5.4375 -2.59375q-2.015625 -2.609375 -2.015625 -7.0625l0 -4.125q0 -4.4375153 2.0625 -7.0156403q2.078125 -2.578125 5.65625 -2.578125q3.296875 0 5.09375 1.984375q1.8125 1.96875 1.96875 5.640625l-2.890625 0q-0.1875 -2.78125 -1.171875 -3.96875q-0.984375 -1.1875 -3.0 -1.1875q-2.328125 0 -3.578125 1.828125q-1.25 1.8125 -1.25 5.3281403l0 4.171875q0 3.453125 1.15625 5.296875q1.171875 1.84375 3.40625 1.84375q2.234375 0 3.21875 -1.109375q0.984375 -1.109375 1.21875 -3.984375l2.890625 0zm11.484375 7.21875l-2.78125 0l0 -19.26564l-4.78125 2.140625l0 -2.625l7.125 -3.109375l0.4375 0l0 22.85939z" fill-rule="nonzero"></path><path fill="#000000" d="m387.52167 263.83722q-0.1875 3.65625 -2.0625 5.59375q-1.859375 1.9375 -5.265625 1.9375q-3.421875 0 -5.4375 -2.59375q-2.015625 -2.609375 -2.015625 -7.0625l0 -4.125q0 -4.4375153 2.0625 -7.0156403q2.078125 -2.578125 5.65625 -2.578125q3.296875 0 5.09375 1.984375q1.8125 1.96875 1.96875 5.640625l-2.890625 0q-0.1875 -2.78125 -1.171875 -3.96875q-0.984375 -1.1875 -3.0 -1.1875q-2.328125 0 -3.578125 1.828125q-1.25 1.8125 -1.25 5.3281403l0 4.171875q0 3.453125 1.15625 5.296875q1.171875 1.84375 3.40625 1.84375q2.234375 0 3.21875 -1.109375q0.984375 -1.109375 1.21875 -3.984375l2.890625 0zm15.96875 7.21875l-12.71875 0l0 -2.078125l6.484375 -8.59375q1.46875 -1.984375 2.03125 -3.25q0.578125 -1.2812653 0.578125 -2.7031403q0 -1.8125 -0.84375 -2.9375q-0.84375 -1.125 -2.21875 -1.125q-1.734375 0 -2.6875 1.203125q-0.9375 1.1875 -0.9375 3.4375l-2.765625 0q0 -3.140625 1.71875 -5.078125q1.71875 -1.9375 4.671875 -1.9375q2.71875 0 4.28125 1.671875q1.5625 1.65625 1.5625 4.421875q0 3.3750153 -3.515625 7.9843903l-5.0625 6.625l9.421875 0l0 2.359375z" fill-rule="nonzero"></path><path fill="#3d85c6" d="m514.70135 261.8216q0 -4.09375 1.109375 -7.7031403q1.109375 -3.609375 3.140625 -6.328125q1.234375 -1.640625 2.375 -2.40625l0.546875 1.90625q-1.875 1.796875 -3.078125 5.421875q-1.203125 3.6093903 -1.3125 8.031265l-0.015625 1.265625q0 5.5 1.546875 9.71875q1.171875 3.171875 2.859375 4.90625l-0.546875 1.765625q-1.4375 -0.96875 -2.921875 -3.1875q-3.703125 -5.578125 -3.703125 -13.390625zm24.75 2.015625q-0.1875 3.65625 -2.0625 5.59375q-1.859375 1.9375 -5.265625 1.9375q-3.421875 0 -5.4375 -2.59375q-2.015625 -2.609375 -2.015625 -7.0625l0 -4.125q0 -4.4375153 2.0625 -7.0156403q2.078125 -2.578125 5.65625 -2.578125q3.296875 0 5.09375 1.984375q1.8125 1.96875 1.96875 5.640625l-2.890625 0q-0.1875 -2.78125 -1.171875 -3.96875q-0.984375 -1.1875 -3.0 -1.1875q-2.328125 0 -3.578125 1.828125q-1.25 1.8125 -1.25 5.3281403l0 4.171875q0 3.453125 1.15625 5.296875q1.171875 1.84375 3.40625 1.84375q2.234375 0 3.21875 -1.109375q0.984375 -1.109375 1.21875 -3.984375l2.890625 0zm15.96875 7.21875l-12.71875 0l0 -2.078125l6.484375 -8.59375q1.46875 -1.984375 2.03125 -3.25q0.578125 -1.2812653 0.578125 -2.7031403q0 -1.8125 -0.84375 -2.9375q-0.84375 -1.125 -2.21875 -1.125q-1.734375 0 -2.6875 1.203125q-0.9375 1.1875 -0.9375 3.4375l-2.765625 0q0 -3.140625 1.71875 -5.078125q1.71875 -1.9375 4.671875 -1.9375q2.71875 0 4.28125 1.671875q1.5625 1.65625 1.5625 4.421875q0 3.3750153 -3.515625 7.9843903l-5.0625 6.625l9.421875 0l0 2.359375zm9.265625 -9.078125q0 6.96875 -3.125 12.328125q-1.6875 2.875 -3.5 4.09375l-0.546875 -1.765625q1.96875 -1.890625 3.171875 -5.765625q1.203125 -3.890625 1.234375 -8.515625l0 -0.5625q0 -5.9375153 -1.953125 -10.625015q-1.078125 -2.5625 -2.453125 -4.015625l0.546875 -1.765625q1.71875 1.15625 3.328125 3.796875q3.296875 5.4375 3.296875 12.79689z" fill-rule="nonzero"></path><path fill="#000000" d="m691.52167 263.83722q-0.1875 3.65625 -2.0625 5.59375q-1.859375 1.9375 -5.265625 1.9375q-3.421875 0 -5.4375 -2.59375q-2.015625 -2.609375 -2.015625 -7.0625l0 -4.125q0 -4.4375153 2.0625 -7.0156403q2.078125 -2.578125 5.65625 -2.578125q3.296875 0 5.09375 1.984375q1.8125 1.96875 1.96875 5.640625l-2.890625 0q-0.1875 -2.78125 -1.171875 -3.96875q-0.984375 -1.1875 -3.0 -1.1875q-2.328125 0 -3.578125 1.828125q-1.25 1.8125 -1.25 5.3281403l0 4.171875q0 3.453125 1.15625 5.296875q1.171875 1.84375 3.40625 1.84375q2.234375 0 3.21875 -1.109375q0.984375 -1.109375 1.21875 -3.984375l2.890625 0zm6.78125 -5.5625l1.765625 0q1.703125 0 2.625 -1.046875q0.921875 -1.046875 0.921875 -2.8593903q0 -4.0 -3.09375 -4.0q-1.484375 0 -2.328125 1.078125q-0.84375 1.078125 -0.84375 2.828125l-2.75 0q0 -2.734375 1.65625 -4.5q1.671875 -1.78125 4.265625 -1.78125q2.6875 0 4.265625 1.6875q1.578125 1.671875 1.578125 4.75q0 1.5781403 -0.828125 2.9531403q-0.8125 1.359375 -2.125 2.0q3.21875 1.1875 3.21875 5.328125q0 3.046875 -1.703125 4.859375q-1.6875 1.796875 -4.421875 1.796875q-2.703125 0 -4.375 -1.703125q-1.65625 -1.71875 -1.65625 -4.609375l2.765625 0q0 1.8125 0.875 2.890625q0.875 1.0625 2.390625 1.0625q1.546875 0 2.453125 -1.046875q0.921875 -1.046875 0.921875 -3.1875q0 -4.140625 -3.921875 -4.140625l-1.65625 0l0 -2.359375z" fill-rule="nonzero"></path><path fill="#000000" fill-opacity="0.0" d="m27.771654 47.745407l720.0 0" fill-rule="nonzero"></path><path stroke="#351c75" stroke-width="2.0" stroke-linejoin="round" stroke-linecap="butt" d="m27.771654 47.745407l708.0 0" fill-rule="evenodd"></path><path fill="#351c75" stroke="#351c75" stroke-width="2.0" stroke-linecap="butt" d="m735.77167 51.04887l9.076172 -3.303463l-9.076172 -3.3034668z" fill-rule="evenodd"></path><path fill="#000000" fill-opacity="0.0" d="m34.102364 7.7454066l521.6693 0l0 44.850395l-521.6693 0z" fill-rule="nonzero"></path><path fill="#351c75" d="m55.64924 34.363533q-0.140625 2.75 -1.546875 4.203125q-1.40625 1.453125 -3.953125 1.453125q-2.5625 0 -4.078125 -1.953125q-1.515625 -1.953125 -1.515625 -5.296875l0 -3.09375q0 -3.328125 1.546875 -5.25q1.5625 -1.9375 4.25 -1.9375q2.46875 0 3.8125 1.484375q1.359375 1.484375 1.484375 4.234375l-2.171875 0q-0.140625 -2.09375 -0.890625 -2.984375q-0.734375 -0.890625 -2.234375 -0.890625q-1.75 0 -2.6875 1.375q-0.9375 1.359375 -0.9375 4.0l0 3.125q0 2.59375 0.875 3.984375q0.875 1.375 2.546875 1.375q1.671875 0 2.40625 -0.828125q0.75 -0.84375 0.921875 -3.0l2.171875 0zm4.6835938 -5.953125q1.1875 -1.546875 3.015625 -1.546875q3.375 0 3.421875 4.5l0 8.421875l-2.0625 0l0 -8.328125q0 -1.5 -0.5 -2.125q-0.5 -0.625 -1.5 -0.625q-0.765625 0 -1.390625 0.515625q-0.609375 0.515625 -0.984375 1.34375l0 9.21875l-2.078125 0l0 -18.0l2.078125 0l0 6.625zm14.042969 11.609375q-2.359375 0 -3.625 -1.40625q-1.265625 -1.421875 -1.296875 -4.15625l0 -1.53125q0 -2.828125 1.234375 -4.4375q1.25 -1.625 3.453125 -1.625q2.234375 0 3.328125 1.421875q1.109375 1.421875 1.125 4.421875l0 1.359375l-7.078125 0l0 0.296875q0 2.03125 0.765625 2.96875q0.78125 0.921875 2.21875 0.921875q0.90625 0 1.609375 -0.34375q0.703125 -0.359375 1.3125 -1.109375l1.078125 1.3125q-1.359375 1.90625 -4.125 1.90625zm-0.234375 -11.375q-1.28125 0 -1.90625 0.890625q-0.625 0.890625 -0.703125 2.75l5.0 0l0 -0.28125q-0.09375 -1.8125 -0.65625 -2.578125q-0.5625 -0.78125 -1.734375 -0.78125zm11.347656 9.609375q1.03125 0 1.65625 -0.640625q0.625 -0.640625 0.671875 -1.828125l1.96875 0q-0.078125 1.828125 -1.3125 3.03125q-1.21875 1.203125 -2.984375 1.203125q-2.359375 0 -3.59375 -1.484375q-1.234375 -1.484375 -1.234375 -4.40625l0 -1.40625q0 -2.859375 1.234375 -4.359375q1.234375 -1.5 3.578125 -1.5q1.953125 0 3.09375 1.234375q1.140625 1.234375 1.21875 3.359375l-1.96875 0q-0.0625 -1.40625 -0.671875 -2.109375q-0.59375 -0.703125 -1.671875 -0.703125q-1.375 0 -2.046875 0.921875q-0.671875 0.90625 -0.6875 2.96875l0 1.625q0 2.234375 0.65625 3.171875q0.671875 0.921875 2.09375 0.921875zm9.8671875 -4.265625l-1.09375 1.265625l0 4.53125l-2.078125 0l0 -18.0l2.078125 0l0 10.765625l3.9375 -5.453125l2.484375 0l-4.03125 5.296875l4.5625 7.390625l-2.40625 0l-3.453125 -5.796875zm11.472656 -0.5625l-4.84375 0l0 -1.78125l4.84375 0l0 1.78125zm4.34375 6.359375l-2.0625 0l0 -12.6875l2.0625 0l0 12.6875zm0.171875 -16.046875q0 0.53125 -0.296875 0.890625q-0.296875 0.34375 -0.890625 0.34375q-0.578125 0 -0.875 -0.34375q-0.296875 -0.359375 -0.296875 -0.890625q0 -0.53125 0.296875 -0.890625q0.296875 -0.359375 0.875 -0.359375q0.59375 0 0.890625 0.375q0.296875 0.359375 0.296875 0.875zm5.0429688 3.359375l0.0625 1.375q1.203125 -1.609375 3.078125 -1.609375q3.375 0 3.421875 4.5l0 8.421875l-2.0625 0l0 -8.328125q0 -1.5 -0.5 -2.125q-0.5 -0.625 -1.5 -0.625q-0.765625 0 -1.390625 0.515625q-0.609375 0.515625 -0.984375 1.34375l0 9.21875l-2.078125 0l0 -12.6875l1.953125 0zm15.832024 9.4375q0 -0.671875 -0.515625 -1.140625q-0.5 -0.484375 -1.9375 -1.125q-1.671875 -0.703125 -2.3593674 -1.1875q-0.6875 -0.5 -1.03125 -1.125q-0.34375 -0.625 -0.34375 -1.484375q0 -1.546875 1.125 -2.578125q1.1406174 -1.03125 2.9062424 -1.03125q1.84375 0 2.96875 1.078125q1.125 1.078125 1.125 2.765625l-2.0625 0q0 -0.84375 -0.578125 -1.453125q-0.5625 -0.609375 -1.453125 -0.609375q-0.921875 0 -1.453125 0.484375q-0.515625 0.46875 -0.515625 1.265625q0 0.640625 0.375 1.03125q0.390625 0.375 1.84375 1.015625q2.3125 0.890625 3.140625 1.765625q0.828125 0.859375 0.828125 2.171875q0 1.65625 -1.140625 2.65625q-1.125 0.984375 -3.03125 0.984375q-1.984375 0 -3.2187424 -1.140625q-1.234375 -1.140625 -1.234375 -2.875l2.09375 0q0.03125 1.046875 0.6406174 1.65625q0.609375 0.59375 1.71875 0.59375q1.03125 0 1.5625 -0.46875q0.546875 -0.46875 0.546875 -1.25zm9.8203125 -3.671875q0 -2.765625 1.34375 -4.375q1.34375 -1.625 3.546875 -1.625q2.203125 0 3.546875 1.578125q1.34375 1.5625 1.375 4.28125l0 1.328125q0 2.75 -1.34375 4.359375q-1.328125 1.609375 -3.546875 1.609375q-2.203125 0 -3.546875 -1.5625q-1.328125 -1.5625 -1.375 -4.21875l0 -1.375zm2.078125 1.1875q0 1.953125 0.765625 3.078125q0.765625 1.125 2.078125 1.125q2.734375 0 2.8125 -3.96875l0 -1.421875q0 -1.953125 -0.78125 -3.078125q-0.765625 -1.140625 -2.0625 -1.140625q-1.28125 0 -2.046875 1.140625q-0.765625 1.125 -0.765625 3.0625l0 1.203125zm14.0 2.578125l2.40625 -9.53125l2.109375 0l-3.765625 12.6875l-1.546875 0l-3.796875 -12.6875l2.109375 0l2.484375 9.53125zm11.203125 3.390625q-2.359375 0 -3.625 -1.40625q-1.265625 -1.421875 -1.296875 -4.15625l0 -1.53125q0 -2.828125 1.234375 -4.4375q1.25 -1.625 3.453125 -1.625q2.234375 0 3.328125 1.421875q1.109375 1.421875 1.125 4.421875l0 1.359375l-7.078125 0l0 0.296875q0 2.03125 0.765625 2.96875q0.78125 0.921875 2.21875 0.921875q0.90625 0 1.609375 -0.34375q0.703125 -0.359375 1.3125 -1.109375l1.078125 1.3125q-1.359375 1.90625 -4.125 1.90625zm-0.234375 -11.375q-1.28125 0 -1.90625 0.890625q-0.625 0.890625 -0.703125 2.75l5.0 0l0 -0.28125q-0.09375 -1.8125 -0.65625 -2.578125q-0.5625 -0.78125 -1.734375 -0.78125zm12.175781 0.40625q-0.421875 -0.078125 -0.9375 -0.078125q-1.59375 0 -2.21875 1.734375l0 9.078125l-2.078125 0l0 -12.6875l2.015625 0l0.03125 1.296875q0.84375 -1.53125 2.359375 -1.53125q0.5 0 0.828125 0.171875l0 2.015625zm10.28125 -5.015625l0 3.0625l1.90625 0l0 1.6875l-1.90625 0l0 7.859375q0 0.75 0.25 1.140625q0.25 0.375 0.84375 0.375q0.40625 0 0.828125 -0.140625l-0.015625 1.765625q-0.703125 0.234375 -1.453125 0.234375q-1.21875 0 -1.875 -0.875q-0.640625 -0.890625 -0.640625 -2.484375l0 -7.875l-1.9375 0l0 -1.6875l1.9375 0l0 -3.0625l2.0625 0zm6.6054688 15.75l-2.0625 0l0 -12.6875l2.0625 0l0 12.6875zm0.171875 -16.046875q0 0.53125 -0.296875 0.890625q-0.296875 0.34375 -0.890625 0.34375q-0.578125 0 -0.875 -0.34375q-0.296875 -0.359375 -0.296875 -0.890625q0 -0.53125 0.296875 -0.890625q0.296875 -0.359375 0.875 -0.359375q0.59375 0 0.890625 0.375q0.296875 0.359375 0.296875 0.875zm5.0429688 3.359375l0.046875 1.171875q1.171875 -1.40625 3.0625 -1.40625q2.125 0 2.96875 1.84375q1.1875 -1.84375 3.328125 -1.84375q3.5 0 3.578125 4.375l0 8.546875l-2.0625 0l0 -8.34375q0 -1.390625 -0.5 -2.0625q-0.484375 -0.671875 -1.65625 -0.671875q-0.9375 0 -1.53125 0.734375q-0.578125 0.71875 -0.671875 1.84375l0 8.5l-2.078125 0l0 -8.4375q-0.03125 -2.640625 -2.140625 -2.640625q-1.578125 0 -2.21875 1.578125l0 9.5l-2.0625 0l0 -12.6875l1.9375 0zm20.636719 12.921875q-2.359375 0 -3.625 -1.40625q-1.265625 -1.421875 -1.296875 -4.15625l0 -1.53125q0 -2.828125 1.234375 -4.4375q1.25 -1.625 3.453125 -1.625q2.234375 0 3.328125 1.421875q1.109375 1.421875 1.125 4.421875l0 1.359375l-7.078125 0l0 0.296875q0 2.03125 0.765625 2.96875q0.78125 0.921875 2.21875 0.921875q0.90625 0 1.609375 -0.34375q0.703125 -0.359375 1.3125 -1.109375l1.078125 1.3125q-1.359375 1.90625 -4.125 1.90625zm-0.234375 -11.375q-1.28125 0 -1.90625 0.890625q-0.625 0.890625 -0.703125 2.75l5.0 0l0 -0.28125q-0.09375 -1.8125 -0.65625 -2.578125q-0.5625 -0.78125 -1.734375 -0.78125z" fill-rule="nonzero"></path></g></svg>

